<svg id="Layer_1" data-name="Layer 1" xmlns="http://www.w3.org/2000/svg" viewBox="0 0 96 96"><defs><style>.cls-1{fill:none;stroke:#fff;stroke-miterlimit:10;stroke-width:0.5px;}</style></defs><title>interviste</title><path class="cls-1" d="M59.39,13.9c6.12-5.76,16.24-5.26,22.09.6a16.09,16.09,0,0,1,.06,22.67L58.81,14.44Q59.09,14.16,59.39,13.9Z"/><path class="cls-1" d="M20.58,80.41a.84.84,0,0,1-1.18,0L17.49,78.5h0l-1.91-1.91a.85.85,0,0,1,0-1.18L17,74l5,5Z"/><path class="cls-1" d="M30.49,78.13A4.17,4.17,0,0,1,24.76,78L18,71.23a4.16,4.16,0,0,1-.17-5.71L47.14,34.42a15.11,15.11,0,0,0,3.66,6l4.78,4.78a15.1,15.1,0,0,0,6,3.66Z"/><path class="cls-1" d="M63.92,47a12.72,12.72,0,0,1-6.69-3.49l-4.78-4.78a12.82,12.82,0,0,1-.79-17.09L74.32,44.32A12.66,12.66,0,0,1,63.92,47Z"/><path class="cls-1" d="M82.57,43.62,80.8,45.39a1.51,1.51,0,0,1-2.12,0L50.59,17.29a1.51,1.51,0,0,1,0-2.12l1.77-1.77a1.5,1.5,0,0,1,2.12,0L82.57,41.5A1.5,1.5,0,0,1,82.57,43.62Z"/><path class="cls-1" d="M36,63.43l-4.18,4.18a1.54,1.54,0,0,1-2.12,0h0l-1.35-1.35a1.51,1.51,0,0,1,0-2.12L32.56,60a1.52,1.52,0,0,1,2.12,0L36,61.31A1.5,1.5,0,0,1,36,63.43Z"/><line class="cls-1" x1="17.49" y1="78.5" x2="9.82" y2="86.16"/></svg>