<?xml version="1.0" encoding="utf-8"?>
<!-- Generator: Adobe Illustrator 21.1.0, SVG Export Plug-In . SVG Version: 6.00 Build 0)  -->
<svg version="1.1" id="Layer_1" xmlns="http://www.w3.org/2000/svg" xmlns:xlink="http://www.w3.org/1999/xlink" x="0px" y="0px"
	 viewBox="0 0 217.9 108" style="enable-background:new 0 0 217.9 108;" xml:space="preserve">
<style type="text/css">
	.st0{fill:#B3CDC0;}
</style>
<g>
	<g>
		<path class="st0" d="M214.6,23.6h-50.8V0h50.8V23.6z M164.8,22.6h48.8V1h-48.8V22.6z"/>
	</g>
	<g>
		<path class="st0" d="M202.1,50.7h-50.6V27.3h50.6V50.7z M152.5,49.7h48.6V28.3h-48.6V49.7z"/>
	</g>
	<g>
		<path class="st0" d="M148,50.8h-22.7V0H148V50.8z M126.3,49.8H147V1h-20.7V49.8z"/>
	</g>
	<g>
		<path class="st0" d="M121.7,50.7H79V36.2h42.7V50.7z M80,49.7h40.7V37.2H80V49.7z"/>
	</g>
	<g>
		<path class="st0" d="M121.7,32.7H79V18.2h42.7V32.7z M80,31.7h40.7V19.2H80V31.7z"/>
	</g>
	<g>
		<path class="st0" d="M121.7,14.7H79V0.1h42.7V14.7z M80,13.7h40.7V1.1H80V13.7z"/>
	</g>
	<g>
		<path class="st0" d="M75.4,50.7H52.8V0h22.7V50.7z M53.8,49.7h20.7V1H53.8V49.7z"/>
	</g>
	<g>
		<path class="st0" d="M49.2,50.8H26.6V0h22.7V50.8z M27.6,49.8h20.7V1H27.6V49.8z"/>
	</g>
	<g>
		<path class="st0" d="M23.1,50.8H0.4V0h22.7V50.8z M1.4,49.8h20.7V1H1.4V49.8z"/>
	</g>
</g>
<g>
	<g>
		<path class="st0" d="M217.9,105h-42.7V90.4h42.7V105z M176.3,104h40.7V91.4h-40.7V104z"/>
	</g>
	<g>
		<path class="st0" d="M217.9,86.9h-42.7V72.4h42.7V86.9z M176.3,85.9h40.7V73.4h-40.7V85.9z"/>
	</g>
	<g>
		<path class="st0" d="M217.9,68.9h-42.7V54.4h42.7V68.9z M176.3,67.9h40.7V55.4h-40.7V67.9z"/>
	</g>
	<g>
		<path class="st0" d="M171.7,105H149V54.3h22.7V105z M150,104h20.7V55.3H150V104z"/>
	</g>
	<g>
		<path class="st0" d="M145.5,105h-22.7V54.3h22.7V105z M123.8,104h20.7V55.3h-20.7V104z"/>
	</g>
	<g>
		<path class="st0" d="M119.3,105H96.7V54.3h22.7V105z M97.7,104h20.7V55.3H97.7V104z"/>
	</g>
	<g>
		<path class="st0" d="M92.9,77.8H42.1V54.2h50.8V77.8z M43.1,76.8h48.8V55.2H43.1V76.8z"/>
	</g>
	<g>
		<path class="st0" d="M80.5,104.9H29.8V81.6h50.6V104.9z M30.8,103.9h48.6V82.6H30.8V103.9z"/>
	</g>
	<g>
		<path class="st0" d="M26.3,105H3.6V54.3h22.7V105z M4.6,104h20.7V55.3H4.6V104z"/>
	</g>
</g>
</svg>
