<?xml version="1.0" encoding="utf-8"?>
<!-- Generator: Adobe Illustrator 21.1.0, SVG Export Plug-In . SVG Version: 6.00 Build 0)  -->
<svg version="1.1" id="Layer_1" xmlns="http://www.w3.org/2000/svg" xmlns:xlink="http://www.w3.org/1999/xlink" x="0px" y="0px"
	 viewBox="0 0 1239.9 595.3" style="enable-background:new 0 0 1239.9 595.3;" xml:space="preserve">
<style type="text/css">
	.st0{fill:#83B09A;}
</style>
<g>
	<polygon class="st0" points="0.7,0 0.7,595.3 53.2,595.3 53.2,0 0.7,0 0.7,0 	"/>
	<polygon class="st0" points="67.7,0 67.7,595.3 147,595.3 147,595.2 147,595.2 147,0 67.7,0 67.7,0 	"/>
	<polygon class="st0" points="192.3,0 154.7,0 154.7,0 154.7,0 154.7,595.3 192.3,595.3 192.3,0 192.3,0 192.3,0 	"/>
	<polygon class="st0" points="368.5,0 330.9,0 330.9,595.3 368.5,595.3 368.5,0 368.5,0 368.5,0 	"/>
	<polygon class="st0" points="235.5,0 235.5,0 235.5,595.3 242.6,595.3 242.6,0 235.5,0 235.5,0 	"/>
	<polygon class="st0" points="397.2,0 397.2,0 397.2,0 397.2,595.3 411.4,595.3 411.4,595.2 411.4,595.2 411.4,0 397.2,0 	"/>
	<polygon class="st0" points="323.1,0 285.5,0 285.5,595.3 323.1,595.3 323.1,0 323.1,0 323.1,0 	"/>
</g>
</svg>
