<?xml version="1.0" encoding="utf-8"?>
<!-- Generator: Adobe Illustrator 21.1.0, SVG Export Plug-In . SVG Version: 6.00 Build 0)  -->
<svg version="1.1" id="Layer_1" xmlns="http://www.w3.org/2000/svg" xmlns:xlink="http://www.w3.org/1999/xlink" x="0px" y="0px"
	 viewBox="0 0 680.8 564.2" style="enable-background:new 0 0 680.8 564.2;" xml:space="preserve">
<style type="text/css">
	.st0{fill:#176941;}
</style>
<g>
	<path class="st0" d="M234.6,208l-0.4,0c0,0-0.1,0-0.1,0c-0.2-0.1-0.4-0.1-0.5-0.1l0,0.1c-0.4,0-0.7,0-1.1,0c-0.7,0-1.3,0-2,0
		c-0.9,0-1.9-0.1-2.9,0c-0.3-0.1-0.7-0.1-1-0.1l0,0.2c0,0,0,0,0,0l-0.1,0c-1.5,0.2-2.3,0.4-2.6,0.4l-0.4,0.1
		c-0.7,0.2-1.5,0.3-2.2,0.5c-0.8,0.2-1.5,0.6-2.2,0.9c-0.8,0.4-1.7,0.8-2.4,1.4c-0.2,0.2-1.6,1.3-1.8,1.4c-0.3,0.2-1.2,1.2-1.4,1.4
		c-0.2,0.2-0.6,0.7-0.9,1.2c-0.2,0.3-0.4,0.5-0.5,0.6c-0.3,0.3-0.5,0.7-0.7,1l-0.1,0.1c-0.1,0.2-0.3,0.5-0.4,0.7
		c-0.2,0.4-0.4,0.8-0.7,1.1c-0.6,0.8-0.6,3.4-0.6,3.4c0,0.2,0,0.4,0,0.6c0,0.7,0,1.5,0.2,2.3c0,0.2,0.1,0.4,0.1,0.6
		c0.2,0.7,0.3,1.5,0.8,2.2c0.3,0.4,0.5,0.7,0.9,0.9c0,0.1,0,0.2,0,0.4c0,0,0.1,1,0.4,1.6l0,0.1c0,0.2,0.1,0.3,0.1,0.4l0.1,0.2
		c0.1,0.2,0.2,0.5,0.4,0.7c0.1,0.1,0.1,0.2,0.2,0.3l0.1,0.2c0.2,0.2,0.7,0.9,0.9,1.2c0,0,1.4,1.3,2,1.7c0.4,0.3,0.9,0.5,1.3,0.7
		c0.4,0.2,0.7,0.3,1.1,0.5l0.1,0.1c0.4,0.1,0.7,0.2,1,0.3l0.3,0.1c0.2,0.1,0.4,0.1,0.6,0.1c0.1,0,0.2,0,0.3,0c0.1,0,0.1,0,0.2,0
		c1.2,0,5.5-0.5,6-0.7c0.1,0,0.5-0.2,0.8-0.3c0.5-0.2,1.1-0.5,1.3-0.5c0.6-0.2,3.8-2.4,4.5-2.9c0.1-0.1,0.9-0.7,1.1-0.9
		c0.1-0.1,0.2-0.2,0.3-0.3c0.1-0.1,0.2-0.2,0.3-0.2c0.3-0.2,1.2-1,2.4-2.3c0.5-0.5,1.8-2.5,1.9-2.9c0.1-0.2,0.2-0.3,0.3-0.5
		c0.1-0.2,0.2-0.4,0.4-0.6c0.1-0.3,0.3-0.6,0.5-0.9c0.2-0.5,0.5-0.9,0.7-1.5c0.2-0.4,0.3-0.8,0.5-1.1c0.2-0.5,0.5-0.9,0.7-1.4
		c0.4-1,1.8-4.8,2-5.9c0.1-0.3,0.4-2.1,0.2-2.8l-0.1-0.7l-0.4-0.1l0,0c-0.1-0.1-0.2-0.1-0.2-0.2c-0.2-0.2-0.4-0.4-0.8-0.6
		c-0.4-0.2-2.6-1.1-3.4-1.3C239.1,208.5,236.6,208.2,234.6,208z M244.1,211.6l0,0.2l-0.1,0L244.1,211.6z M232.6,209.9
		c0.3,0,0.5,0,0.8,0l-0.1,0.9c0.6,0.1,2.3,1.4,2.9,2c0,0.1,0.1,0.2,0.1,0.4c0.1,0.3,0.2,0.6,0.2,0.6v0c0.1,0.3,0.5,2,0.6,2.4
		c0.1,0.4,0.1,1.1,0,1.6c0,0,0,0,0,0l-0.9,0l-0.6,0c-0.5,0-1,0.1-1.5,0.1c-0.3,0-0.7,0.1-1,0.1c-0.1-0.1-0.1-0.2-0.2-0.2
		c-0.1-0.1-0.3-0.3-0.4-0.4c-0.1-0.1-0.2-0.2-0.2-0.2c0,0,0,0,0-0.1c0.1-0.3,0.1-0.6,0.1-0.9c0-0.5,0-1,0-1.5c0-0.3,0-1.2,0-1.8
		l0-0.4c0-0.7-0.5-1.8-0.7-2.4C232,209.9,232.3,209.9,232.6,209.9z M221.5,227.6l-0.3-0.2c-0.7-0.6-1.4-1.2-2.8-1.5
		c-0.3-0.1-0.6-0.1-0.9-0.2c0.4-0.7,0.7-1.4,0.9-2.3c0.1-0.3,0.2-0.6,0.3-0.9c0.2-0.4,0.3-0.8,0.5-1.3c0.6,0.1,1.2,0.2,1.9,0.4
		c0.4,0.1,1.6,0.9,2.2,1.3c0,0.7-0.2,2.2-0.3,2.7c0,0.3-0.1,0.5-0.1,0.7c-0.1,0.5-0.3,0.9-0.9,1.5c0,0-0.1,0.1-0.1,0.1
		C221.8,227.8,221.6,227.7,221.5,227.6z M225.8,221.1c-0.1-0.1-0.2-0.2-0.3-0.3c0-0.1,0-0.1,0-0.2c0.3-1.3,0.3-1.6,0.3-1.9l0-0.7
		c0-0.1,0-0.2,0-0.3c0.1,0,0.1,0,0.2,0c0.3,0,0.7-0.1,1-0.1l0.2,0c0.3,0,0.6,0,1.1-0.1c0.1,0,0.2,0,0.3-0.1c0.2,0.1,0.5,0.4,0.6,0.5
		l0.2,0.2c0,0,0.1,0.1,0.1,0.2c0.1,0.1,0.1,0.2,0.2,0.3c0.2,0.3,0.5,0.5,0.7,0.7c0.1,0.1,0.1,0.1,0.2,0.2c0,0,0,0.1,0,0.1
		c0,0.2,0,0.5,0.1,0.8c0.1,0.5,0.1,1,0.1,1.6l0,1.7c-0.9-0.1-1.8-0.2-2.6-0.2c-0.4,0-0.6,0-1-0.1c-0.2,0-0.5-0.1-0.8-0.1
		C226.4,222.4,226.2,221.6,225.8,221.1z M223.9,210.5l0.4-0.1c0.1,0,0.7-0.1,2.4-0.4l0.1,0c0,0,0,0,0,0l0.1,0.8c-0.1,0-0.1,0-0.2,0
		c0.1,0,0.4,0.1,0.5,0.1c0.3,0.1,0.5,0.2,0.7,0.2l0.1,0c0.2,0,0.6,0.2,0.8,0.3c0.1,0.3,0.3,0.7,0.3,0.8l0,0.5c0,0.6,0,1.5,0,1.8
		c0,0,0,0.1,0,0.1c-0.1,0-0.2-0.1-0.3-0.1c-0.6-0.1-1.1,0-1.5,0.1c-0.1,0-0.2,0-0.3,0l-0.3,0c-0.4,0-0.9,0-1.3,0.1c0,0-0.1,0-0.1,0
		c-0.2-1.6-0.8-3.4-2.2-3.9c-0.2-0.1-0.4-0.1-0.5-0.1C223.3,210.7,223.6,210.6,223.9,210.5z M217.6,213.3v0.8c1.2,0,2.4-0.1,3.6-0.3
		l0.2,0c0.3,0,0.7-0.1,0.9-0.1c0.2,0.5,0.5,1.8,0.5,2.8c0,0.3,0,1.1,0.1,1.7l0,0.6c0,0.1,0,0.2-0.1,0.3c-0.4-0.2-0.7-0.3-0.8-0.4
		c-0.9-0.3-1.8-0.4-2.8-0.6c-0.2-0.8-0.5-1.6-0.9-2.3l-0.1-0.2c-0.3-0.5-0.8-1.2-1.5-1.7C217,213.8,217.3,213.5,217.6,213.3z
		 M211.8,222.9c0-0.2,0-0.4,0-0.6c0-0.5,0.1-1.9,0.3-2.2c0.3-0.4,0.6-0.9,0.8-1.3c0.1-0.2,0.2-0.4,0.3-0.6l0.1-0.1
		c0.2-0.3,0.3-0.5,0.5-0.7c0.1-0.1,0.3-0.4,0.5-0.7c0,0,0-0.1,0.1-0.1l0.7,0.1c0.2,0.2,0.4,0.5,0.5,0.7l0.2,0.3
		c0.5,0.8,0.7,1.6,0.6,2.7c0,0.3-0.2,0.7-0.4,1.1c-0.2,0.4-0.4,0.8-0.5,1.4c-0.2,0.7-0.4,1.3-0.9,2c-0.4,0.7-0.9,1.3-1.4,1.9
		c-0.1,0.2-0.3,0.3-0.4,0.5c-0.1-0.1-0.2-0.1-0.2-0.3c-0.3-0.4-0.4-1-0.5-1.6c0-0.2-0.1-0.4-0.1-0.6
		C211.8,224.2,211.8,223.6,211.8,222.9z M220.8,235.4c-0.1,0-0.2,0-0.3,0l-0.4-0.1c-0.3-0.1-0.5-0.1-0.7-0.2l-0.1-0.1
		c-0.3-0.1-0.7-0.3-1-0.4c-0.4-0.2-0.8-0.4-1.2-0.6c-0.2-0.1-1.2-1-1.6-1.4c-0.1-0.1-0.5-0.7-0.6-0.8l-0.1-0.2
		c-0.1-0.1-0.2-0.3-0.2-0.4c-0.1-0.1-0.1-0.2-0.2-0.4l-0.1-0.3c0-0.2-0.1-0.3-0.1-0.4l0-0.1c0,0,0,0,0,0l0.3,0.2c0,0,0,0,0,0l0,0
		c0,0,0,0,0,0c0.1-0.2,0.3-0.4,0.5-0.6c0.8-1,1.5-1.1,2.9-0.8c0.7,0.2,1,0.4,1.6,0.9l0.3,0.3c1.5,1.2,3.3,2.7,3.6,3.2
		c0.1,0.1,0.2,0.3,0.3,0.4c0.1,0.1,0.2,0.2,0.2,0.3c0,0,0,0.1,0,0.2c0,0.3,0.1,0.7,0.2,1.1c-1.2,0.1-2.4,0.3-2.8,0.3
		C221.1,235.4,220.9,235.4,220.8,235.4z M233.6,230.4c-0.3,0.2-1.1,0.8-1.2,1c-0.6,0.5-3.4,2.4-3.8,2.5c-0.2,0.1-0.9,0.3-1.5,0.6
		c-0.4,0.1-0.7,0.3-0.8,0.3c-0.1,0-0.5,0.1-1,0.2l1.2-1.1c0,0,0.1,0.1,0.1,0.2c0-0.1,0-0.1,0-0.2c0-0.2,0-0.6-0.2-1
		c-0.2-0.6-0.6-1-0.9-1.3c-0.1-0.1-0.1-0.2-0.2-0.2c-0.3-0.3-0.8-0.8-1.4-1.4c0-0.1,0.1-0.1,0.1-0.2c0.6-0.8,1.4-1.7,1.5-3.1
		c0,0,0-0.1,0-0.2c0.3,0,0.5,0,0.8,0.1c0.6,0.1,0.9,0.1,1.4,0.1c0.9,0,1.8,0,2.6,0.2c0.6,0.5,2.2,2.7,2.4,3.3c0,0,0-0.1,0-0.2l0.9,0
		c-0.1,0.1-0.2,0.1-0.3,0.2C233.8,230.3,233.7,230.3,233.6,230.4z M239.8,222.1c-0.2,0.4-0.4,0.8-0.6,1.3c-0.2,0.3-0.4,0.7-0.5,1
		c-0.1,0.2-0.2,0.3-0.3,0.5c-0.1,0.2-0.3,0.5-0.4,0.7c-0.1,0.3-1.2,2-1.5,2.3c-0.3,0.3-0.5,0.5-0.8,0.8c-0.5-1-1.3-2.1-2.1-3
		c0.2-0.4,0.2-0.9,0.1-1.3l0-0.1l0-2.1c0-0.4,0-0.8,0-1.2c0.2,0,0.4,0,0.6-0.1c0.4,0,0.9-0.1,1.2-0.1l0.6,0l0.9,0
		c0.1,0,0.6,0.1,0.7,0.1c0.2,0.1,0.4,0.1,0.7,0.2c0,0,0.2,0.1,0.4,0.1c0,0,0.1,0.1,0.1,0.1c0.1,0,0.1,0.1,0.4,0.4l1-0.9
		C240.1,221.2,239.9,221.6,239.8,222.1z M243,212.1c0.1,0,0.1,0.1,0.2,0.1c0,0.5-0.1,1.4-0.2,1.6c-0.2,0.8-1.3,3.9-1.8,5.3
		c-0.2-0.2-0.4-0.3-0.6-0.4c-0.1-0.1-0.2-0.2-0.4-0.2c0-0.1,0-0.2,0-0.3c0-0.9,0.1-1.9-0.1-2.6c0,0-0.5-2.5-0.7-2.9
		c0-0.1-0.1-0.3-0.2-0.5c-0.2-0.7-0.3-0.8-0.3-0.9c-0.1-0.2-0.4-0.5-0.8-0.9c0.7,0.1,1.2,0.2,1.5,0.3c0.6,0.2,2.7,1,3.1,1.2
		C242.8,211.9,242.9,212,243,212.1z"/>
	<path class="st0" d="M252.5,228.3c0.4-0.1,0.5,0.2,0.8,0.3c0.2,0.1,0.5,0.1,0.8,0.1c0.1,0,0.3,0,0.4,0c0.4-0.1,0.2-0.1,0.5-0.4
		c0.2-0.2,0.4-0.1,0.6-0.4c0.1-0.2,0.4-0.6,0.5-0.8c0.2-0.5,0.3-1.4,0.2-1.9c-0.1-0.5-0.3-1-0.6-1.5c-0.4-0.7-0.9-1.4-1.4-2.1
		c-0.8-1.1-1.6-2.2-2.6-3.2c-0.5-0.6-1-1.2-1.3-1.9c-0.2-0.4-0.3-0.6-0.6-1c-0.2-0.3-0.5-0.6-0.7-0.9c-0.3-0.3-0.5-0.6-0.8-0.9
		c-0.3-0.3-0.6-0.8-0.9-0.9l-0.1-0.1c0,0.5-0.3,0.9-0.4,1.4c-0.1,0.4-0.2,0.7-0.3,1.1c-0.1,0.3-0.2,0.8-0.3,1.1
		c-0.1,0.4-0.3,0.9-0.4,1.3c-0.3,0.6-0.5,1.3-0.8,1.9c-0.3,0.6-0.3,1.2-0.5,1.8c-0.1,0.4-0.4,0.7-0.5,1c0,0.1,0,0.3,0,0.4
		c-0.1,0.2-0.3,0.4-0.4,0.6c-0.3,0.7-0.6,1.6-0.6,2.3c0,0.5-0.2,1.5,0,2c0.4,0.8,2.5,1,2.9,0.2c-0.4,0.3-0.3,0.7-0.4,1.1
		c-0.1,0.3-0.4,0.6-0.6,1c-0.2,0.4-0.2,0.9-0.3,1.3c-0.1,0.4-0.1,0.7-0.1,1.1c0,1.8-0.1,3.7,1,5.1c0.4,0.5,0.8,0.9,1.3,1.3
		c0.2,0.2,0.5,0.3,0.7,0.4c0.1,0.1,0.1,0.2,0.3,0.3c0.2,0.1,0.6,0.3,0.9,0.4c0.6,0.1,1.7,0.1,2.2,0c0.3-0.1,0.5-0.3,0.8-0.4
		c0.4-0.2,0.6-0.3,0.9-0.6c1.1-1.4,0.9-3.2,0.9-4.9c0-0.9-0.1-1.6-0.2-2.4c-0.1-0.7-0.4-1.4-0.5-2.1
		C252.2,228.6,252,228.4,252.5,228.3z"/>
	<path class="st0" d="M169.6,169.6c-0.1,0.8-0.2,1.5-0.2,2.3c-0.1,1.4-0.1,2.9-0.2,4.3c0,0.8,0,1.6,0.1,2.4c0,0.4,0.1,2.3,0.3,3
		c0.2,0.8,0.8,3.5,0.9,3.6c0.1,0.4,1.3,2.9,1.4,3.3c0.1,0.2,0.5,1.1,0.5,1.2c0.1,0.2,1,1.6,1.3,2.1c0,0.1,0.7,1,0.8,1.2
		c0.1,0.2,1.2,1.7,1.7,2.2c0.4,0.4,2.5,2.4,2.9,2.7c0.4,0.3,3.1,2.3,3.4,2.4c0.4,0.2,0.7,0.5,1.1,0.7c0.9,0.5,1.8,1,2.7,1.4
		c0.5,0.2,4.7,1.8,5.3,1.6c-0.1-0.8-0.3-1.3-0.3-2.1c0-0.3-0.2-1.4-0.2-1.7c0-0.3-0.2-1.6-0.2-1.8c0-0.5-0.3-1.9-0.4-2.2
		c-0.1-0.4-0.6-2.2-0.7-2.5c-0.2-0.5-0.8-1.7-1-1.9c0,0-0.6-0.8-0.8-1c-0.2-0.3-1.7-2-2-2.3c-0.5-0.6-0.9-1-1.3-1.6
		c-0.1-0.2-1.1-1.2-1.3-1.5c-0.4-0.5-0.7-0.9-1.1-1.3c-0.3-0.3-1.1-1.5-1.4-1.9c-0.5-0.7-0.8-1.4-1.2-2.2c-0.3-0.6-0.7-1.2-0.9-1.8
		c-0.2-0.7-1.4-3.3-1.6-4c-0.1-0.3-0.2-0.6-0.3-0.9c-0.2-0.5-1.1-4.3-1.2-4.7c-0.1-0.3-0.6-4.5-0.7-4.8c-0.1-0.5-0.6-2.8-0.6-2.8
		c-1.2,0.1-3.9,5.4-4.3,6.7C169.9,168,169.6,169.3,169.6,169.6z"/>
	<path class="st0" d="M192.9,203.9c0.5,0.2,1.9,0.1,2.1,0.1c0.6,0,2.4-0.2,2.7-0.3c0.3-0.1,3.7-0.9,3.9-0.9c0.3-0.1,1.3-0.4,1.4-0.5
		c0.1,0,1-0.3,1.3-0.5c0.1,0,3.4-1.5,3.6-1.6c0.3-0.2,0.4-0.3,0.7-0.5c0.3-0.2,1.6-1.2,2-1.5c0.6-0.5,2.9-2.6,3-2.8
		c0.1-0.2,0.4-0.4,0.6-0.6c0.3-0.3,2-1.8,2.4-2.4c0.1-0.2,0.6-0.9,0.7-1c0.1-0.1,0.2-0.3,0.3-0.4c0.8-1.1,1.7-2.2,2.5-3.3
		c0.2-0.3,0.3-0.6,0.5-0.9c0.1-0.2,0.4-0.7,0.2-0.9c-0.6,0.3-4.3,1.6-4.8,1.7c-0.3,0.1-3.7,1-4.1,1.1c-0.4,0.1-2.1,0.5-2.6,0.6
		c-0.5,0.2-1.2,0.2-1.7,0.4c-1.2,0.3-10.3,1.6-10.7,1.6c-0.4,0-0.8,0-1.2,0.1c-0.5,0.1-1,0-1.5,0c-0.5,0-2.4-0.2-2.8-0.3
		c-0.4-0.1-0.9-0.2-1.4-0.2c0.1,0.2,0.3,0.4,0.4,0.6c0.3,0.4,0.6,0.8,0.8,1.2c0.1,0.2,0.5,1.1,0.6,1.5c0.1,0.3,0.3,0.7,0.3,1
		c0.1,0.3,0.1,0.5,0.3,0.8c0.1,0.2,0.3,1,0.3,1.1c0,0.2,0.1,0.8,0.1,0.9c0,0.2,0.1,1.1,0.2,1.5C193,199.7,192.9,202.9,192.9,203.9z"
		/>
	<path class="st0" d="M189.9,190.9C190,190.9,190,191,189.9,190.9c0-0.1,0-0.1-0.1-0.2L189.9,190.9z"/>
	<path class="st0" d="M178.3,174.4c0.1,0.2,1.8,3.5,2.4,4.7c0.7,1.4,1.7,2.5,2.6,3.6c0.5,0.6,1,1.1,1.5,1.7c0.3,0.3,1.7,1.7,1.9,1.9
		c0.2,0.2,2.2,2,2.6,2.3c0.4,0.3,0.9,0.4,1.4,0.6c0.3,0.1,1.4,0.3,1.8,0.4c0.5,0.1,4.4,0.2,5.9,0.2c1.2,0,2.3-0.1,3.4-0.3
		c0.3,0,0.6,0,1-0.1c0.5-0.1,1.1-0.2,1.6-0.2c0.4-0.1,0.8-0.1,1.2-0.2c0.4-0.1,1.7-0.4,2.1-0.4c0.2,0,0.9-0.2,1.1-0.2
		c0.2,0,0.9-0.2,1-0.3c0.9-0.3,4.1-1,4.8-1.1c0.2-0.1,2-0.5,2.6-0.6c0.7-0.1,3.5-1,3.7-1.1c0.3-0.1,0.6-0.3,1-0.4
		c0.5-0.2,2.4-1,2.9-1.2c0.3-0.1,2.8-1.6,3.4-2.1c0.4-0.3,3.1-2.6,3.2-3.9c0-0.5-0.2-1.1-0.7-1.3c-0.2-0.1-2,0-2.3,0.2
		c-0.2,0.1-1.1,1.3-1.2,1.3c-0.3,0.1-0.5-0.3-0.7-0.3c-1.1-0.3-1.9,0.2-2.7,0.8c-0.3,0.2-3.4,1.3-4,1.3c-0.7,0-1.2-0.1-1.8-0.3
		c-0.6-0.3-1.3-0.5-1.9-0.6c-0.2-0.1-1.7-0.3-2.2-0.4c-0.6-0.1-5.9-0.3-7.9,0.4c-1.6,0.5-9.2,3.8-9.7,4c-0.2-0.3-0.9-1.7-1.2-2.2
		c-0.2-0.4-0.3-0.8-0.6-1.1c-0.2-0.3-1.2-1.6-1.5-1.9c-0.1-0.1-0.3-0.2-0.4-0.3c-0.1-0.2-0.2-0.3-0.4-0.5
		c-0.4-0.4-11.1-8.9-12.1-9.8c-0.4-0.4-1.5-1.6-1.6-1.7c-0.1-0.2-0.5-0.5-0.5-0.6l0-0.3c0,0.5-0.2,1.9-0.2,2c0,0.1-0.2,1.1-0.2,1.3
		c0,0.6,0,1.1-0.1,1.7c0,0.3,0,0.6,0,0.9c0,0.4,0.3,2.4,0.4,3.1C178,173.5,178.1,174,178.3,174.4z"/>
	<path class="st0" d="M180.9,162.5l0.1,0.2c1-0.3,1.7-0.8,2.3-1.1c0.3-0.2,0.6-0.3,1-0.4c0.2,0,0.4-0.1,0.5-0.2l0.2-0.1
		c1.1-0.4,1.8-0.6,3-0.5c0.1,0,0.5,0,0.8,0.1c0.3,0,0.6,0.1,0.7,0.1c0,0,0.3,0.1,1.3,0.6c0.1,0.1,0.7,0.6,0.9,0.7
		c0.1,0.1,0.6,0.6,0.6,0.7c0.2,0.2,0.4,0.4,0.5,0.5c0.9,0.6,2.5-0.2,2.5-0.2c0,0,0.1,0,0.1,0l0.1,0c0.2,0,0.4-0.1,0.5-0.1
		c0.2,0,0.4-0.1,0.6-0.1c0.5,0,2.6,0,3,0.1c0.3,0.1,0.7,0.2,1.1,0.4c0.2,0.1,0.3,0.1,0.4,0.2c0.5,0.2,2.2,1.3,2.6,1.6
		c0.1,0.1,0.2,0.2,0.2,0.3c0.1,0.1,0.8,1,1.1,1.2c0,0,0.7,0.5,1.1,0.6c0.3,0.1,1.2,0,1.3,0c0.2,0,0.5-0.1,1.9-0.5l0.2-0.1
		c0.1,0,0.3,0,0.4,0c0.7,0,2.9,1,3.3,1.3c0.1,0.1,0.2,0.4,0.3,0.6c0.3,0.5,0.8,1.5,0.8,1.6c0,0.2,0.1,0.7,0.6,1
		c0.5,0.3,0.9,0,1.1-0.1c0,0,0.1,0,0.2-0.1c0.3-0.1,1.2-0.1,1.6,0c0.6,0.2,2.1,1.3,2.5,1.6c0.5,0.5,1,1,1.4,1.5
		c0,0.1,0.1,0.1,0.1,0.2c0.1,0.3,0.3,0.9,1,1c0.1,0,0.1,0,0.2,0c0.3,0,0.7-0.1,1.1-0.6c0.2-0.3,0.4-0.6,0.5-0.8l0.1-0.2
		c0.2-0.4,0.7-1.9,0.7-2.1c0.1-0.4,0.6-2.6,0.8-3.4c0.2-0.7,0.2-1.4,0.2-2.1l0-0.4c0-0.5-0.1-2.3-0.3-2.8c-0.1-0.4-0.8-2-1.1-2.5
		c-0.4-0.6-0.9-1.3-1.7-1.7c-0.9-0.5-1.9-0.5-2.7-0.4c-0.1,0-0.3,0.1-0.5,0.1c0,0,0,0,0,0c0-0.1,0-0.2-0.1-0.3l-0.1-0.3
		c-0.2-1.1-0.4-1.7-0.5-2c-0.4-0.9-1-1.9-1.9-2.9c-0.2-0.3-0.5-0.5-0.7-0.8l-0.3-0.4c-0.4-0.4-0.8-0.7-1.1-0.9
		c-0.2-0.1-0.3-0.2-0.5-0.3c-1.5-1.1-6.2-2.6-7.1-2.9c-1.7-0.5-2.5-0.6-3.8-0.7l-0.9-0.1c-4-0.4-7.3,2.9-7.6,3.4
		c-0.1,0.1-0.1,0.2-0.2,0.3c-0.1-0.1-0.2-0.2-0.3-0.3c-0.4-0.5-3.3-2.8-4.4-2.9c-0.1,0-0.2,0-0.4,0c-2.5-0.3-5.6-0.5-7.2,0.3
		c-0.7,0.3-2.9,1.7-3.4,2.2c-0.5,0.5-1,1.1-1.3,1.8c-0.3,0.6-0.4,1.2-0.4,1.6c0,0.3,0,0.5-0.1,0.7c-0.4,1.3,1.3,7.4,1.9,8.3
		C180.4,162.4,180.7,162.5,180.9,162.5z M180.1,154.4c0.1-0.4,0.2-0.8,0.2-1.2c0-0.4,0-0.6,0.2-0.8c0.3-0.5,0.6-1,1-1.3
		c0.3-0.3,2.2-1.4,2.9-1.8c0.8-0.4,2.9-0.4,6.1-0.1c0.2,0,0.3,0,0.4,0c0.6,0.2,2.7,1.7,3,2.1c0.2,0.2,0.5,0.5,1.1,1l0.9,0.8l0.7-0.6
		c0.4-0.4,0.9-1,1-1.3c0.3-0.4,3-2.8,5.8-2.5l0.9,0.1c1.3,0.1,1.9,0.2,3.4,0.6c1.7,0.5,5.5,1.8,6.4,2.5c0.2,0.1,0.3,0.3,0.5,0.4
		c0.3,0.2,0.6,0.4,0.8,0.6l0.3,0.4c0.2,0.3,0.5,0.5,0.7,0.8c0.6,0.6,1,1.3,1.5,2.3c0.1,0.2,0.3,1.2,0.4,1.6l0.1,0.4
		c0.2,0.8,0.3,1.3,0.7,1.6c0.6,0.5,1.4,0.3,1.9,0.2c0.1,0,0.2-0.1,0.2-0.1c0.7-0.1,1.2,0,1.5,0.2c0.4,0.2,0.6,0.5,1,1.1
		c0.2,0.3,0.7,1.6,0.8,1.9c0.1,0.3,0.2,1.8,0.2,2.2l0,0.4c0,0.6,0,1.1-0.2,1.6c-0.2,0.7-0.8,3.1-0.8,3.5c-0.1,0.2-0.4,1.3-0.5,1.5
		c-0.4-0.5-0.9-1-1.4-1.4c-0.3-0.3-2.2-1.8-3.3-2.1c-0.4-0.1-0.9-0.2-1.4-0.2c-0.3,0-0.7,0-1,0.1c-0.2-0.3-0.4-0.8-0.7-1.4
		c-0.2-0.3-0.3-0.5-0.3-0.7c-0.5-1.1-3.9-2.3-5-2.4c-0.2,0-0.6,0-1,0.1l-0.2,0.1c-0.4,0.1-1.4,0.4-1.6,0.4c-0.1,0-0.5,0-0.6,0
		c-0.1-0.1-0.3-0.2-0.4-0.2c-0.1-0.1-0.6-0.7-0.7-0.8c-0.1-0.1-0.3-0.4-0.4-0.5c-0.3-0.4-2.7-1.8-3.4-2.1l-0.4-0.2
		c-0.5-0.2-1-0.4-1.5-0.5c-0.3,0-3.3-0.2-3.7-0.1c-0.2,0-0.3,0.1-0.5,0.1c-0.3,0-0.5,0.1-0.9,0.2c-0.2,0-0.4,0.1-0.6,0.2
		c-0.1,0-0.4,0.1-0.6,0.2c-0.2-0.3-0.6-0.7-0.8-0.9c-0.1-0.1-1-0.8-1.2-0.9c-1.3-0.7-1.8-0.8-2.1-0.9c-0.1,0-0.4,0-0.6-0.1
		c-0.4,0-0.8-0.1-0.9-0.1c-1.5,0-2.4,0.2-3.6,0.6l-0.2,0.1c-0.2,0-0.3,0.1-0.5,0.1c-0.5,0.1-1.1,0.3-1.6,0.6
		c-0.2,0.1-0.4,0.3-0.6,0.4C181,158.7,180,155,180.1,154.4z"/>
	<polygon class="st0" points="48.5,362.9 46,361.8 46.5,363.4 47.9,366.1 54.3,372.9 61.5,377.5 66.1,379.8 63.3,372.9 56.8,359 
		51.9,350 44.5,336.4 40,328.4 33.3,317.6 33.2,320.4 33.4,325.6 34.9,330.1 40.1,336.2 43.2,339.3 45.9,341.6 43.7,340.3 
		41.2,338.6 38.5,335.7 38.6,337.5 39.3,342.2 40.8,345.7 43.3,348.8 44.7,349.9 46.7,350.9 45.2,350.6 42.5,349.5 40.4,347.5 
		39.2,345.7 39.2,348 39.1,351.3 40.4,355.6 43,359.2 45.6,361 49.7,362.2 52.2,363.8 54.4,366 53.1,365.1 	"/>
	<polygon class="st0" points="58.9,428.7 60.3,428.1 62.6,425.8 70.4,413.1 71.6,409.8 71.8,405 65.7,409.3 53.6,418.8 45.9,425.5 
		34.4,435.8 27.6,442.1 18.6,450.9 21.4,450.4 25.9,449 30,446.6 33.4,442.6 35.2,440.2 37,436.2 39.2,433.3 38.4,435.7 37.3,438.5 
		36.8,441.4 41.4,439.7 44.3,437.3 46.7,434.2 47.5,432.6 48,430.5 47.6,434.8 47,437.5 46.9,438.4 50.1,437.6 54,435.5 56.9,432.2 
		58.1,429.2 58.7,425.5 59.6,422 61,419.5 60.4,421 	"/>
	<polygon class="st0" points="45.9,330.7 51,337.5 56,344.7 62.1,355.8 66.3,363 69.5,369.3 73.2,378 75.1,375.9 76.7,373.1 
		77.2,370 78.1,363.9 77.7,360 76.8,356.2 76,357.4 74.1,360.9 73.6,362.4 73.6,359.6 74.3,354.6 74.7,352.4 74.2,347.7 72.7,343 
		70.7,340.3 68.9,338.3 68.6,339.9 67.9,342.6 66.2,346.3 66.6,343.9 67,341.6 67.4,339.5 67.4,337.9 67.3,336.2 65.8,333.4 
		63.5,330.6 61,329 58.8,328.2 58.9,332.7 58.6,337.5 57.6,335 57.5,332.3 57.6,329.7 56.9,327.2 54.8,324.7 52.2,322.8 46.8,320.4 
		35,316.8 40.2,323.4 	"/>
	<path class="st0" d="M28.6,435.8l5.5-6.5l5.9-6.5l9.4-8.4l5.9-6.1l5.6-4.2l7.6-5.6l-2.2-1.6l-3.3-0.7l-3.2,0.2l-5.7,0.7l-4.1,1.1
		l-3.6,1.7l1.6,1l3.5,0.9l1.7-0.1l-2.3,0.8c0,0-2.3,0.3-2.8,0.1c-0.4-0.2-2.4-0.3-2.4-0.3l-2.6,0.1l-4.4,1.9l-3.9,2.3l-2.5,2.8
		l-1.6,2.2l1.7-0.3l2.4-0.1l3,0.7l1.3,0.6l-2.4,0.1l-2.4,0.1l-2.1,0.1l-1.7,0.2l-1.5,0.6l-2.5,2.1l-2.2,2.9l-0.9,2.8l-0.3,2.3
		l1.3-0.8l1.6-0.5l2.3-0.3c0,0,1.3-0.1,1.7-0.1c0.4,0,2.1-0.1,2.1-0.1l-2.3,1.5l-2.5,0.9l-2.4,0.7l-2.3,0.9l-2.1,2.6l-1.5,3l-1,5.4
		l-0.8,12.5l5.2-6.5L28.6,435.8z"/>
	<path class="st0" d="M87.8,352.2l-0.4-2.9l-2.8,3.4l-1.7,3.8c0,0-0.3,1.5-0.2,2.5c0,1,0.5,4.3,0.5,4.3l0,2.4l0,1.3l-2.1-8.3l-1.5,4
		l-1.2,5.2l-2.2,18.3l-0.2,1.3l4.3-6.4l4.1-8.2l7.6-15.9l5.2-12.3l4-9.1l1.6-2.8c0,0-7.3,7-7.7,8c-0.4,1-1.4,3-1.7,4.7
		c-0.3,1.7-0.5,2.7-0.5,2.7s-0.4-4.6-0.3-5c0.1-0.4,0.1-3.6,0.1-3.7c0,0-0.1,0.2-0.9,0.8c-1,0.7-3,7.7-2.8,9.4
		c0.1,1.8-0.3,4.2-0.2,5c0.1,0.8-0.1,1.7-0.1,1.7L87.8,352.2z"/>
	<path class="st0" d="M92.6,339.6C92.6,339.6,92.6,339.6,92.6,339.6C92.6,339.6,92.6,339.6,92.6,339.6z"/>
	<path class="st0" d="M246.7,194.4c-0.3-0.6-2.5-3.4-2.8-3.5c-1.2-0.4-2.4,6.5-2.6,7.8c-0.1,0.6,0,2.5,0.1,2.9
		c0.1,0.9,0.4,1.6,0.6,2.4c0.3,1.3,2.6,4.9,2.9,5.6c0.2,0.3,0.1,0.6,0.3,0.4c0.1-0.1,0.2-0.2,0.4-0.4c0.2-0.2,1.5-1.8,1.7-2.5
		c0.1-0.4,0.8-1.9,0.9-2.4c0.1-0.8,0.7-3.9,0.8-4.6c0.1-0.7-0.2-1.2-0.3-1.8C248.2,196.8,247.5,195.7,246.7,194.4z"/>
	<path class="st0" d="M261.2,193.5c0.3-1.5,0.3-2.9,0.5-4.4c0.1-0.7,0.1-4.1-0.6-4.5c-0.2,0.2-0.4,0.4-0.5,0.6
		c-0.1,0.1-0.6,0.9-0.8,1.1c-0.2,0.3-0.3,0.6-0.5,0.8c-0.2,0.2-0.8,1-0.9,1.2c-0.2,0.3-4.1,5.5-5.8,7.9c-1.5,2-3.3,4.2-3.8,6.7
		c-0.2,1.2-1.2,6-0.9,6.9c0.2,0.8,4.1,1.3,5.3,1.5c0.9,0.1,2.1,0.2,3,0c0.5-0.1,1-0.2,1.5-0.3c0.3-0.1,2.4-1.8,2.8-2.2
		c0.3-0.3,0.8-0.6,1.2-0.8c1.1-0.6,2.5-0.6,3.7-0.8c0.2,0,3.5-0.5,4.1-0.9c0.2-0.1,2.5-1.9,2.9-2.3c0.8-0.9,1.2-2,1.7-3.2
		c0,0-10.2-1.4-11.7-1.6c-0.6-0.1-1.3-0.1-1.9-0.1c-0.4,0-1.4,0.1-1.7,0.4C259.8,199.1,261,194.8,261.2,193.5z"/>
	<path class="st0" d="M268.5,221.2c0.7,0,1.4,0.3,2.1,0.4c0.3,0.1,2.6,0.8,3,1c0.2,0.1,0.4-1,0.1-1.8c-0.2-0.7-1.3-4.1-1.5-4.3
		c-0.9-1.4-2.3-3.3-4.1-3.6c-1.3-0.2-2.6-0.4-3.9-0.5c-0.6,0-4.8-0.1-6.3,0c-0.7,0-3.6,0.3-4,0.4c-0.6,0.1-1.3,0.2-1.9,0.3
		c-0.7,0.1-1.2,0.3-1.9,0.3l0,0.2c1.2,0.6,1.9,2.1,2.8,3.1c0.8,0.9,1.5,2,2.3,2.9c0.7,0.8,1.5,1.9,2.4,2.4c0.7,0.5,1.5,0.9,2.2,1.3
		c0.6,0.4,3.8,1.7,4.7,2.1c0.8,0.4,1.9,0.9,2.8,1c0.8,0.1,0.5-3.4,0.5-3.6c-0.1-0.3-0.2-0.4-0.3-0.6
		C267.4,221.3,267.7,221.2,268.5,221.2z"/>
	<path class="st0" d="M287.6,83c0.5-0.2,1.2-1,1.6-1.4c0.3-0.4,1.9-3.2,2.3-4.2c1-2.2,1.9-4.3,2.9-6.5c0.5-1,0.7-2.3,0.8-3.4
		c0.1-0.5,0.3-2.5,0.3-3.1c0-0.2,0-1.6,0-1.6c0-0.2-0.2-1-0.2-1.1c0-0.2-0.6-3.1-0.9-3.2c-0.5-0.2-2.6,1.1-2.9,1.2
		c-0.5,0.2-2.2,1.5-2.6,1.8c-0.2,0.2-1,0.8-1.2,1c-0.3,0.3-1.4,1.5-1.6,1.9c-0.2,0.4-1.6,2.6-2,3.5c-0.2,0.5-0.8,2.6-0.9,3.1
		c0,0.3,0.4,3.3,0.5,3.8C283.8,75.9,287.6,83,287.6,83z"/>
	<path class="st0" d="M287,93c0,0.1-1.3-1.2-1.4-1.3c-0.3-0.1-1.5,0.1-1.9,0.3h0c-0.4,0.2-1.7,1.2-2,1.4c-0.7,0.6-1.1,1.1-1.6,1.9
		c-0.6,0.9-2.7,4.3-3.2,5.2c-0.1,0.2-0.8,1.6-0.9,1.8c-0.2,0.3-1.4,4.2-1.5,4.9c-0.2,1.4,0.4,6.5,0.8,6.5c0,0.1,0,0.2,0,0.4
		c0.3,0.1,0.5,0.4,0.7,0.6c0.3,0.3,1.1,0.5,1.1,0.5c0.4,0.2,0.7,0.3,1.2,0.3c0.8-0.1,1.3-0.6,2-1c0.9-0.5,3.8-4.1,4.4-5.2
		c0.7-1.1,2-4.8,2.1-5.5c0.2-0.9,0.3-1.9,0.5-2.8c0.2-0.9,0.4-3.9,0.4-4.5c0-0.3-0.4-2.5-0.4-2.7L287,93z"/>
	<path class="st0" d="M259.7,94c0,0.1-0.4,0.5-0.5,0.6c-0.3,0.3-0.4,0.6-0.7,0.9c-0.2,0.2-1.8,2.3-1.7,2.5c0.1,0.2,7.7,2.8,8.6,2.7
		c0.9-0.2,1.6-0.3,2.5-0.5c0.8-0.2,3.8-1.5,4.6-1.8c0.8-0.3,1.6-0.9,2.2-1.4c0.8-0.6,1.7-1.2,2.4-1.9c0.6-0.6,1.2-1.3,1.8-1.9
		c0.2-0.2,1.1-1.2,1.4-1.5c0.2-0.3,1.9-3.3,1.9-3.3c-0.6-0.2-1.1-0.7-1.7-1c-0.5-0.3-1.1-0.4-1.8-0.5c-1.5-0.3-3,0-4.4,0.1
		c-1.3,0.1-2.5,0.3-3.8,0.8c-0.6,0.2-7.8,3.6-8.3,3.9C262,91.8,260,93.6,259.7,94z"/>
	<path class="st0" d="M306.5,73.4c-0.4,0-3.3-0.5-4.5-0.4c-0.8,0.1-1.8,0.4-2.5,0.6c-0.6,0.2-1.3,0.5-1.9,0.8
		c-0.9,0.5-3,2.4-3.3,2.8c-0.4,0.4-1.9,3.1-2.2,3.9c-0.3,0.8-1.6,3.3-1.6,3.3c0.5-0.6,2.2-0.4,2.9-0.4c0.3,0,2,0,2.4,0
		c0.7,0,1.5-0.1,2.3-0.2c1.8-0.2,3.8-0.5,5.4-1.3c2.1-1.1,4.2-2.5,5.7-4.4c0.3-0.4,1.3-2.2,1.5-2.6c0.1-0.2,0.5-0.9,0.4-1.2
		C311,74,307,73.4,306.5,73.4z"/>
	<path class="st0" d="M265.1,70.4c0.3,0.5,0.4,1,0.7,1.5c0.3,0.8,0.8,1.6,1.1,2.4c0.4,0.8,1,1.5,1.6,2.2c0.7,0.9,1.6,1.9,2.5,2.5
		c0.2,0.2,0.4,0.3,0.6,0.4c0.2,0.1,0.3,0.3,0.5,0.5c0.5,0.3,1.2,0.8,1.8,1c0.4,0.2,0.9,0.3,1.4,0.5c0.5,0.1,0.8,0.4,1.3,0.5
		c1.3,0.3,2.5,0.9,3.8,1.1c0.4,0.1,0.8,0.1,1.3,0.2c0.4,0.1,1,0,1.4,0c-0.6-0.6-0.9-1.6-1.2-2.3c-0.2-0.4-0.3-0.9-0.5-1.3
		c-0.1-0.3-0.1-0.5-0.3-0.7c-0.1-0.2-0.3-0.2-0.4-0.4c-0.1-0.2,0.1-0.4,0-0.6c0-0.1-0.4-0.4-0.4-0.6c-0.3-0.6-0.5-1.3-0.8-1.8
		c-0.2-0.4-0.9-1.1-0.8-1.6c-0.1,0-0.2-0.1-0.3-0.1c0.1-0.7-0.9-1.4-1.3-2c-0.5-0.6-1-1.1-1.6-1.7c-0.5-0.5-1-1-1.5-1.4
		c-0.1-0.1-0.3,0-0.4-0.1c-0.1-0.1-0.1-0.3-0.2-0.4c-0.2-0.2-0.6-0.2-0.8-0.4c-0.3-0.2-0.6-0.4-1-0.6c-0.5-0.2-0.8-0.4-1.2-0.7
		c-0.6-0.3-1.3-0.5-1.9-0.6c-0.8-0.1-1.6-0.3-2.4-0.4c-0.5-0.1-1-0.1-1.5-0.1c-0.8,0.1-0.7,0.3-0.6,1
		C264.2,67.8,264.5,69.2,265.1,70.4z"/>
	<path class="st0" d="M283.6,83.5l-0.2-0.2c-0.1,0-0.1,0-0.2,0C283.3,83.3,283.4,83.4,283.6,83.5z"/>
	<path class="st0" d="M308.3,94.2c-0.7-1.1-4.4-3.8-5.3-4.1c-2.2-0.9-9.7-2-10.9-2.2c-0.7-0.1-2,0-2.5,0.4l0.5,1
		c0,0.1,0.5,2.7,0.7,3.3c0.4,1.4,0.7,2.9,1.3,4.2c0.4,0.9,0.8,1.8,1.5,2.5c0.4,0.5,2.1,1.1,2.7,1.3c0.7,0.3,7.7,0.1,8.4-0.3
		c0.6-0.3,1.1-0.5,1.7-0.7c0.8-0.3,1.4-0.7,2.1-1.1c0.5-0.2,0.8-0.5,1.3-0.7c0.5-0.3,0.6-0.2,0.3-0.8
		C309.5,96,308.9,95.1,308.3,94.2z"/>
	<path class="st0" d="M289.4,84.9c-0.2-0.3-0.9-1.1-1.3-1.2c-0.4-0.1-0.8-0.2-1.2-0.2c-0.9,0.1-1.4,0.4-2.2,0.9
		c-1,0.6-1.8,2-1.7,3.2c0,0.5,0.4,1.7,0.8,2.1c0.3,0.4,1.5,1,1.6,1c0.1,0.1,2.1-0.4,2.5-0.6C288.5,89.6,289.9,85.7,289.4,84.9z"/>
	<path class="st0" d="M203.5,45.8c0.4,0.9,2,4,2.3,4.4c0.2,0.3,1.4,1.5,1.8,1.8c0.8,0.8,1.8,1.4,2.7,2.2c0.4,0.3,1.8,1.1,2.2,1.3
		c0.4,0.2,0.8,0.4,1.1,0.6c0.5,0.2,2.8,0.8,4.8,1.3c-0.4,0.3-0.8,0.6-1,0.8c-1.7,1.4-3.2,3.3-4.1,5.3c-0.4,0.8-1.4,4.6-1.6,5.8
		c-0.4,2.2-0.8,4.3-1.1,6.5c-0.7,3.9-1.8,7.9-0.8,11.7c0.4,1.6,0.9,3.5,1.6,5c0.4,0.8,0.7,1.8,1.1,2.5c0.2,0.3,0.9,1.5,1.2,1.6
		c0.2,0.4,3.6,2.8,5.2,3.7c2,1.1,3.7,1.7,6.1,2.1c2.4,0.4,3.3,0.1,5.2-1.3c0.9-0.7,3.9-3.7,4.5-5c1.7-4,2.1-9.4,2.8-13.8
		c0.6-4.2-1.1-8.1-2.7-12c-0.9-2.1-2.1-4.1-3.1-6.2c-0.2-0.4-1.3-1.9-1.7-2.3c-0.8-0.7-4.4-4.1-5.6-4.5c-0.7-0.2-1.7-0.4-2.7-0.6
		c0,0,0-0.1,0-0.1c0.3-0.7,3-6.4,3.3-6.8c1.5-2.2,2.6-4.7,3.7-7.2c0.5-1.1,0.8-2.2,1.3-3.2c0.5-1,1.9-5.2,2-6.4
		c0.1-0.6,0.2-1.1,0.3-1.7c0.2-1.4,0.3-2.7,0.5-4c0-0.3,0.2-0.9,0-1.1c-0.2-0.1-0.3-0.1-0.5,0c-0.4,0-8.3,5.6-8.6,6.2
		c-0.1,0.3-1.2,1.8-1.4,2.4c-0.5,0.9-0.7,1.7-0.9,2.7c0.2-0.7,0.1-1.5-0.2-2.2c-0.2-0.4-0.3-0.8-0.4-1.2c-0.2-0.4-4.2-7.1-5.2-6.4
		c0,0-0.8,1.2-1,1.5c-0.3,0.4-0.5,0.8-0.7,1.2c-0.3,0.5-0.6,1.1-0.8,1.6c-0.3,0.6-1.1,3.4-1.2,4.3c-0.1,0.6-0.6,3.8-0.4,4.8
		c0.2,0.9,0.4,1.7,0.8,2.4c0.2,0.4-0.8-0.7-1.2-1.2c-0.3-0.3-0.7-0.5-1.1-0.7c-0.8-0.4-4.9-2.3-6.2-2.9c-0.8-0.3-0.9-0.1-1,0.7
		c-0.1,0.7,0.1,3.2,0.2,4C202.9,44.5,203.3,45.2,203.5,45.8z M227.1,72c0.2,1,1.3,4.8,1.5,5.8c0.2,0.9,0.3,1.7,0.4,2.6
		c0.2,1.6,0.3,3.2,0.6,4.9c0.2,1.5,0,3.2-0.3,4.7c-0.2,1.1-1.6,3.2-2.7,3.4c-1.4,0.3-2.4-0.3-3.5-0.7c-0.6-0.2-1.2-0.4-1.7-0.6
		c-0.5-0.3-2.8-1.8-3.1-2.6c-0.4-1-0.8-2.1-1.2-3.2c-0.7-2.1-1-4.5-0.8-6.7c0.1-1.3,0.8-5.9,1-7c0.1-0.6,0.2-1.1,0.3-1.7
		c0.1-0.5,0.2-1,0.3-1.5c0.1-0.5,0.3-1,0.5-1.4c0.2-0.5,1.3-2.6,1.2-2.5c0.1-0.3,0.4-0.7,0.7-1c0.3-0.5,0.8-1.1,1-1.7
		c0,0,0.1,0.1,0.1,0.4C221.5,64.1,226.6,69.1,227.1,72z"/>
	<path class="st0" d="M79,210.6c0.6,0.8,4.1,5.7,4.8,6.7c0.7,1,1.6,1.6,2.5,2.3c0.3,0.2,1.2,0.9,1.4,1c0.6,0.4,2.4,1.6,2.7,1.7
		c0.3,0.2,3.3,1.7,3.6,1.8c0.4,0.2,2.8,1.5,3.5,1.6l0.8-2.2c-0.9-0.2-3-1.1-3.3-1.3c-0.2-0.2-2.6-1.9-3.2-2.5
		c-0.6-0.6-1.2-1.3-1.8-2c-1-1.1-3.4-4-3.6-4.3c-0.1-0.2-1.1-1.5-1.4-2c-0.8-1.2-4.3-6.5-3.8-7c0.8,0.4,2.3,1.3,3.1,1.8
		c0.7,0.4,3,1.8,3.3,2c0.2,0.2,1.1,0.9,1.3,1c0.8,0.5,1.5,1.3,2.3,2c0.4,0.3,2.6,2.7,3.3,3.6c0.6,0.8,1.1,1.7,1.6,2.6
		c0.7,1.1,1.2,2.2,1.7,3.3c0.2,0.6,0.7,2.7,1.4,3.1c0,0,0,0-0.1,0c-0.2,0.1-0.6,0.4-0.6,1c0,0.4-0.5,2.1-0.9,3.3
		c-0.1,0.4-0.2,0.7-0.3,1.1c-0.9,0.4-1.3,1.2-1.5,1.6c-0.4,0.7-0.5,1.3-0.6,1.9c0,0.1-0.1,0.2-0.1,0.3c-0.2,0.5-0.4,1.1-0.3,1.7
		l1.3-0.2c-0.2,1-0.4,2.1-0.6,3.2c-0.2,1-0.4,8.7-0.2,10c0,0.2,0.1,0.7,0.2,1.2c0.4,2.8,0.8,5.8,1.2,7c0.5,1.6,1.3,3.1,2.1,4.5
		l-0.5,1.2c0.4,0.2,0.9,0.2,1.3,0.2l0.3,0.5c1.1,1.9,2.5,3.4,4.6,5c0.2,0.1,0.3,0.3,0.5,0.4c0,0.8,0.2,1.6,0.6,2.1
		c-2.5-0.7-5-1.3-5-1.3c-3-0.6-4.7,1.5-5.9,3.8c-1.4,2.7-2.6,6.1-2,9.2c0.5,2.6,1.8,5,3,7.3c0.6,1.2,4.9,6.3,5.8,6.2
		c0,0.6,0.9,0.5,0.8-0.2c-0.1-1-0.5-1.9-0.6-2.9c-0.3-1.8-0.6-3.6-0.7-5.5c0.9-0.2,1.4,0.7,1.8,1.3c0.4,0.6,0.9,1.4,0.9,0.8
		c-0.1-0.8-0.2-1.7-0.3-2.5c-0.1-1.6-0.4-3.4-0.1-5.1c0.4-2.4,0.9-4.8,1.3-7.2c-0.4,2.4-0.7,4.5-0.3,6.9c0.2,1.4,0.6,2.6,1,3.9
		c0.4,1.1,1.6,4.1,1.3,3.3c0.5,0.8,1.7,2.2,2.1,2.5c0.6,0.4,2.4,1.8,4.1,2.5c0.8,0.4,2.5,0.3,2-1.3c-0.3-1-0.9-5.3-0.9-5.9
		c-0.1-3.5-0.7-6.7-0.1-10.1c0.2-0.9,1-3.3,0.3-3.9c-0.5-0.4-2.3-0.4-3-0.5c-0.5-0.1-2.9-0.7-5.3-1.3l1-1c0.2,0.1,0.4,0.2,0.7,0.3
		c0.4,0.2,2.2,0.8,3.9,0.8c0.4,0,0.9,0,1.3-0.2c1.4-0.4,4.5-2.6,5.8-3.6c0,0,0.1,0,0.1,0.1l0.1-0.2c0.1-0.1,0.1-0.1,0.2-0.2
		c0.5-0.5,1.1-1.1,1.6-1.7l0.4-0.5c0.7-0.9,2.8-4.8,3-5.9c0-0.2,0.1-0.4,0.1-0.7l1.2,0.2c0.1-0.7-0.3-1.5-1-2.2
		c0.1-1.5,0.2-3.4,0.2-5l0.5-0.6c0,0-0.1-0.1-0.3-0.5c0,0-0.1-0.1-0.1-0.2c0-0.9,0-1.7-0.1-2.1l0,0c-0.1-0.2-0.5-1.9-0.8-3.2
		c-0.8-3.5-0.8-3.5-0.9-3.6c-0.2-0.3-0.4-0.7-0.6-1l0.3-0.8c-0.3-0.1-0.6-0.1-0.9-0.1c-0.1-0.2-0.2-0.3-0.3-0.5
		c-0.6-0.8-1.2-1.6-1.8-2.3c-0.6-0.8-1.3-1.5-2-2.2c-0.7-0.7-1.4-1.4-2.2-2c0,0-0.9-0.7-1.7-1.4l0.1-0.7c-0.3,0-0.5,0-0.8,0.1
		c-0.1-0.1-0.2-0.2-0.3-0.3l-0.2-0.2c-0.2-0.1-0.3-0.2-0.5-0.3c-0.2-0.1-0.3-0.2-0.5-0.3c-0.2-0.1-0.4-0.3-0.6-0.4
		c-0.2-0.1-0.3-0.2-0.5-0.4c0,0,0,0-0.1-0.1l0.4-0.8c-0.4-0.2-1.2-0.2-2-0.2c-0.5-0.3-1-0.5-1.6-0.8c-0.9-0.4-2-0.7-3.2-1
		c-0.3-0.1-0.6-0.1-0.9-0.2c0.5-0.5,1.2-0.9,1.6-1.4c0.4-0.4,0.8-0.8,1.2-1.1c0.4-0.3,0.8-0.9,1.2-1.3c0.7-0.6,1.6-1.1,2.2-1.8
		c1.3-1.6,2.6-3.4,3.4-5.3c0.5-1.1,2.1-5.6,2.3-6.8c0.3-1.7,0.7-3.4,0.9-5.1c0.2-1.4,0.1-6.2,0.1-6.7c0.1-2.4-0.2-4.6-0.5-6.9
		c-0.2-1.1-0.2-4.6-0.6-4.8c-0.9,1.1-2.3,1.8-3.4,2.6c-1.6,1.3-3.4,2.2-4.9,3.7c-0.7,0.7-1.2,1.5-1.7,2.4c-0.7,1-1.2,2-1.5,3.2
		c-0.4,1.8-1.5,8-1.6,9.2c-0.1,0.8-0.4,7.2-0.6,8.4c-0.3,2,0.2,4,0,6c-0.1,1.1,0.1,2.4,0.3,3.5c0.1,0.6,0.5,1.3,0.5,1.9l-0.4-0.1
		c-0.4-0.1-0.8,0-1,0.1l-0.1,0c-0.1,0-0.3,0-0.4,0.1c-0.3-0.5-0.6-2.5-0.6-2.7c-0.1-0.5-0.7-4.7-1.1-6.3c-0.3-1-0.7-2.1-1-3.1
		c-0.2-0.6-0.6-1.3-0.9-1.8c-0.4-0.7-2.6-3.6-3.4-4.3c-1-0.9-2-1.8-3-2.7c-2-1.6-11.8-5.8-13.8-6.1c-0.6-0.1-1.3-0.5-1.2,0.4
		c0,0.1,1,4.2,1.4,5.5C75.7,203.4,77.7,209.1,79,210.6z M121.3,243.7c0.4,1.5,0.6,2.3,0.7,2.8c-1-0.8-2.1-1.6-2.4-1.8
		c-0.6-0.3-1.2-0.4-1.9-0.5c0.1-0.4,0.3-0.8,0.4-1c0.1-0.1,0.1-0.2,0.2-0.3c0.1-0.1,0.2-0.3,0.3-0.4c0.2-0.2,0.9-0.9,1.2-1.2
		c0,0,0,0,0,0c0.1-0.1,0.4-0.2,0.7-0.5c0.1,0,0.2-0.1,0.2-0.1C120.8,241.4,121.1,242.6,121.3,243.7z M99.7,244.9
		c0-0.2,0.1-0.5,0.1-0.8c0.1-1.1,0.2-1.4,0.5-1.5c0,0,0.2,0,0.7,0.2c1,0.3,1.7,0.7,2.1,1c0.1,0.1,0.3,0.2,0.5,0.4
		c0.1,0.1,0.2,0.2,0.3,0.3l0.4,0.3c0,0-0.1,0.1-0.1,0.1c-0.5,0.5-1.4,2.6-1.9,4.7c-0.5-0.4-1.1-0.7-1.8-0.8
		c-0.5-0.1-0.9-0.2-1.4-0.2L99.7,244.9z M112.6,249.6c-0.1,0.2-0.2,1.2-0.4,2c-0.2,0-0.5,0-0.7,0c-0.8,0.1-1.5,0.7-2,1.4
		c-0.1-0.1-0.3-0.2-0.4-0.2l-0.2-0.1c-0.5-0.2-0.9-0.4-1.4-0.6c-0.2-0.1-0.4-0.2-0.6-0.2c-0.6-0.2-1.2-0.5-1.9-0.7
		c0.2-1.3,0.9-3.4,1.3-4.1c0.1,0,0.4-0.1,0.5-0.1c0.1,0,0.3,0,0.4,0c0.5-0.1,0.9,0,1.6,0.2l0.3,0.1c0.2,0.1,1,0.5,1.2,0.6
		c0.4,0.3,1.1,0.8,2.1,1.3c0.1,0.1,0.2,0.1,0.3,0.2C112.6,249.4,112.6,249.5,112.6,249.6z M103.1,257.1c0-0.3,0-0.5,0-0.7
		c0.1-0.4,0.1-0.8,0.2-1.1c0.1-0.4,0.1-0.9,0.2-1.3c0.1,0,0.3,0,0.6,0c0.4,0,1.1,0.3,1.7,0.5c0.2,0.1,0.5,0.2,0.7,0.3
		c0.4,0.2,0.8,0.3,1.2,0.5l0.1,0.1c0.1,0,0.2,0.1,0.3,0.2c0,0,0.1,0.1,0.1,0.1c0,0.2-0.1,0.4-0.1,0.6c-0.1,0.6-0.2,1.3-0.2,1.9
		c0,0.3,0,0.6-0.1,0.8c0,0.1,0,0.3,0,0.4c-0.1,0-0.1,0-0.2,0c-0.6-0.1-1.3-0.2-1.9-0.3l-0.9-0.2c-0.2,0-0.5-0.1-0.7-0.1
		c-0.4-0.1-0.7-0.1-1.1-0.2c0-0.3,0.1-0.5,0.1-0.8C103.1,257.5,103.1,257.3,103.1,257.1z M113,260.9c-0.7-0.4-1.8-1.4-2.2-1.9
		c0-0.2,0-0.4,0-0.7c0-0.5,0.1-1,0.1-1.5c0.1-0.5,0.2-0.8,0.4-1.3c0.1-0.2,0.4-0.7,0.7-0.9c0.2,0,0.5,0.1,0.7,0.2
		c0.3,0.1,0.6,0.2,0.8,0.2c0.2,0,0.4,0.1,0.6,0.2c-0.3,0.6-0.3,1.2-0.4,1.7c0,0.1,0,0.3-0.1,0.4c-0.2,1.1-0.1,2.1,0.1,3
		c0,0.2,0.1,0.5,0.1,0.7c-0.2,0-0.4,0-0.6,0C113.2,260.8,113.1,260.9,113,260.9z M116.9,253c-0.2-0.1-0.3-0.1-0.5-0.2
		c-0.4-0.2-0.8-0.4-1.3-0.6c0.1-0.6,0.3-1.6,0.4-2c0.1-0.4,0.4-1.5,0.5-1.7c0-0.1,0.3-0.3,0.4-0.5c0.2-0.2,0.3-0.4,0.5-0.5
		c0.2-0.3,0.9-0.3,1.4,0c0.5,0.3,2.9,2.2,3.4,2.8c0.1,0.2,0.3,0.5,0.5,0.7c0,0.8-0.1,1.6-0.1,2.3c-0.2-0.2-0.4-0.3-0.5-0.3
		c-0.6-0.2-1.2-0.3-1.7-0.4c-0.2,0-0.4,0-0.5-0.1C118.7,252.4,117.8,252.6,116.9,253z M116.3,240.6c-0.2,0.2-0.3,0.4-0.5,0.7
		l-0.2,0.2c-0.5,0.7-0.9,2.3-1,2.7c-0.1,0.3-0.2,0.8-0.1,1.4c0,0,0,0,0,0c-0.1,0.1-0.2,0.2-0.3,0.3c-0.1,0.1-0.3,0.3-0.4,0.5
		c-0.6-0.4-1.4-0.9-1.7-1.1c-0.3-0.2-1.6-0.9-2.1-1l0.2-1c0.1-0.5,0.1-1,0.1-1.5c0-0.3,0-0.6,0-0.9c0-0.2,0.1-0.4,0.1-0.6
		c0.1-0.9,0.2-1.6,0.5-1.7c0.8-0.2,4.2,0.5,6.3,1C116.8,240,116.4,240.4,116.3,240.6z M108,237.5c-0.4,0.9-0.5,1.8-0.6,2.5
		c0,0.2,0,0.4-0.1,0.5c-0.1,0.5-0.1,0.9-0.1,1.3c0,0.4,0,0.7-0.1,0.9l-0.1,0.4c-0.1-0.1-0.2-0.1-0.3-0.2l-0.9-0.8
		c-0.2-0.2-0.4-0.3-0.6-0.5c-0.1-0.1-0.2-0.1-0.3-0.2c-0.6-0.5-1.4-0.9-2.6-1.4c0.4-2.7,0.8-3.7,1-4.1c0.6-0.2,1.8-0.1,2.4,0.3
		C106.6,236.7,107.3,237.1,108,237.5z M102.4,233.3c-0.1,0.1-0.3,0.1-0.4,0.2c-1.1,0.6-1.7,2.2-2.3,5.1c-0.5-0.1-1-0.2-1.6-0.1
		c-0.3,0.1-0.5,0.2-0.8,0.3c0-0.4,0-0.7,0.1-0.8c0.2-1.4,0.5-2.9,0.8-4.3c0.1-0.6,0.2-1.2,0.3-1.7c0.5,0,1.3,0.1,1.9,0.2
		c0.2,0,0.4,0.1,0.6,0.1c0.2,0,0.4,0.1,0.7,0.2c0.2,0.1,0.3,0.1,0.5,0.2C102.4,232.8,102.4,233,102.4,233.3z M97.8,251.2
		c0.7,0.1,1.5,0.3,2.2,0.4c0.2,0,0.5,0.3,0.9,0.7c0,0.1-0.1,0.1-0.1,0.2c-0.3,0.8-0.4,1.7-0.5,2.5c0,0.3-0.1,0.7-0.1,1
		c-0.1,0.6-0.1,1,0,1.5c0,0.1,0,0.3,0,0.4c0,0.2-0.1,0.5-0.1,0.8c-0.6-1.1-1.1-2.2-1.5-3.3C98.3,254.6,98.1,252.9,97.8,251.2z
		 M101.7,261.5c0.2,0,0.4,0,0.5,0c0.5,0.1,0.9,0.1,1.4,0.2c0.2,0,0.5,0.1,0.7,0.1l0.9,0.2c0.6,0.1,1.1,0.2,1.7,0.3
		c-0.7,0.5-1.2,1.1-1.4,1.8c0,0-0.1,0.5-0.3,1.1C103.7,264,102.6,262.8,101.7,261.5z M112,267.7c-0.9,0.3-2.7-0.1-3.9-0.6
		c0,0-0.1,0-0.1,0c0.1-0.7,0.2-1.6,0.3-2c0.1-0.3,0.5-0.6,1-0.7l0.5-0.1c0.5-0.1,1.1-0.2,1.4-0.3c0.4-0.1,1-0.1,1.5-0.2
		c0.1,0,0.2,0,0.3,0c0,0,0.1,0,0.1,0l0-0.1c0.1,0,0.2,0,0.4,0c0.7,0,1.3,0,2,0.1c0.1,0.1,0.5,0.3,0.6,0.4l0.1,0.2l0.3,0.2
		c0,0,0.1,0.1,0.2,0.1C115.2,265.8,112.8,267.5,112,267.7z M119.1,262.2l-0.4,0.5c-0.1-0.1-0.1-0.1-0.2-0.1
		c-0.1-0.1-0.2-0.2-0.3-0.2c-0.3-0.3-0.8-0.6-1.3-0.9c0-0.6-0.1-1.1-0.1-1.6c-0.1-0.8-0.2-1.5-0.1-2.1c0-0.2,0.1-0.4,0.1-0.5
		c0-0.2,0.1-0.5,0.1-0.7c0.4-0.3,1.5-0.9,1.9-1c0.2,0,0.4,0.1,0.6,0.1c0.3,0,0.7,0.1,0.8,0.1c0.3,0.2,0.9,0.8,1.4,1.2
		c0,0.1,0,0.2,0,0.3C121.5,257.9,119.6,261.6,119.1,262.2z M115.6,234.1c0.6,0.6,1.3,1.3,1.9,2c0.2,0.2,0.3,0.4,0.5,0.6
		c-2.9-0.7-4.9-1.1-6.3-1.1l0,0c-0.6-0.1-1.1-0.3-1.7-0.5c0.1-0.9,0.1-1.5,0.5-1.7c0,0,0.1-0.1,0.3-0.2c1.2-0.9,1.8-1.3,2.2-1.4
		c0.3,0.2,0.6,0.4,0.7,0.5C114.2,232.8,114.9,233.4,115.6,234.1z M109.1,228.9c0.2,0.1,0.3,0.2,0.5,0.3c0.2,0.1,0.4,0.3,0.6,0.4
		c0,0,0.1,0.1,0.1,0.1c-0.4,0.3-0.9,0.6-1.4,1l-0.2,0.1c-1.1,0.7-1.5,1.8-1.7,2.7c-0.5-0.2-1.1-0.4-1.7-0.5c0-0.4,0-0.8,0.1-1.2
		c0-0.2,0.1-0.4,0.1-0.7c0.1-0.7,0.2-1.5,0.4-2c0,0,0.1-0.1,0.5-0.2c0.4-0.1,2.1-0.2,2.5-0.1c0,0-0.1,0-0.2-0.1l0-0.1
		C108.8,228.7,109,228.8,109.1,228.9z M101.7,222c0.1-0.7,0.7-3.6,0.9-4.3c0.4-1,1.2-6.1,1.9-7.6c0.3-0.8,1.3-3.5,1.6-4.1
		c1-1.9,1.8-4,2.8-6c0.3,0.6,0.2,1.4,0.3,2c0.1,0.4,0,0.8,0,1.2c0.1,0.4-0.2,3.4-0.4,4.5c-0.2,1.2-0.6,2.4-0.9,3.6
		c-0.4,1.4-2.2,5-2.4,5.5c-0.3,0.8-0.6,1.4-1,2.1c-0.5,1-1.1,2-1.6,3c-0.3,0.5-0.6,1.1-0.8,1.7c-0.1,0-0.3-0.1-0.4-0.1l0,0
		C101.3,223.3,101.6,222.5,101.7,222z M100.3,225.6c0,0,0.1,0,0.2-0.1l0.8,0.1c0.5,0.1,1,0.2,1.5,0.3c0.6,0.1,1.2,0.3,1.7,0.5
		c-0.5,0.3-1,0.8-1.3,1.5c-0.2,0.5-0.3,1-0.4,1.5c-0.3-0.1-0.7-0.2-1.2-0.3c-0.2,0-0.4-0.1-0.6-0.1c-0.5-0.1-1.1-0.2-1.6-0.2
		c0-0.1,0-0.1,0.1-0.2C99.8,227.3,100.1,226.3,100.3,225.6z"/>
	<path class="st0" d="M89.4,201c0.5,0.5,1.2,0.8,1.7,1.2c1.3,1.1,2.7,2.2,3.8,3.5c0.6,0.7,1.9,3.6,2.1,4.4c0.5,1.4,0.8,3.1,1.1,4.5
		c0.2,0.8,0.9,4.5,1.1,4.8l0.6,1.5c-0.2-0.6-1.2-9.1-1.3-9.7c-0.1-0.9-0.2-3-0.1-3.2c0-0.3,0.3-3.9,0.4-4.7l0.6-3.2
		c0.2-1,0.4-1.8,0.7-2.7c0.3-0.9,0.6-1.8,0.7-2.7c0-0.5,0.2-1.5-0.1-2c-0.1-0.2-2.1-3-2.3-3.2c-0.2-0.3-1.4-1.7-1.7-2.1
		c-0.5-0.7-6.8-8.2-7.2-8.4c-0.2,0.1-0.3,2.3-0.3,2.9c0,0.9-0.4,3.5-0.5,4c-0.1,0.7-0.5,4.8-0.5,6.3c0,0.8-0.1,1.5-0.2,2.3
		c0,0.7-0.7,4.3,0,5.1C88.4,200,88.9,200.5,89.4,201z"/>
	<path class="st0" d="M110.7,217.1c-0.5,0.8-2.7,3.2-3.1,3.7c-0.4,0.4-1.4,0.8-1.7,1.2c0.2,0.1,5.9-0.7,6.2-0.8
		c0.6-0.2,1.2-0.5,1.7-0.7c1.1-0.5,6.3-3.5,7.8-4.5c1.3-0.9,2.7-2,3.6-3.2c0.6-0.8,0-1.7-0.5-2.3c-0.6-0.7-1.3-1-2.1-1.5
		c-0.3-0.2-2-1-2.1-1c1.8,0.4,3.5-0.9,4.8-2c1.1-0.8,2.6-5.5,2.7-6.7c0-0.5,0.1-1.5-0.1-2c-0.2-0.7-3.6-0.4-4.1-0.3
		c-0.4,0.1-1.9,0.2-2.2,0.3c-0.4,0.2-1,0.3-1.4,0.5c-0.3,0.1-2.9,1-2.9,1.4c0.1,0.6-3,11.1-3.6,12.5
		C113.1,213.5,111.7,215.2,110.7,217.1z"/>
	<path class="st0" d="M61.5,217.4c0.3,0.4,0.6,0.9,1,1.3c0.9,1.1,1.7,1.9,2.7,2.7c2.5,1.9,4.7,3.1,7,3.8c0.6,0.2,1.2,0.4,1.8,0.7
		c0.2,0.1,0.5,0.2,0.8,0.3l0.6,0.2c0.8,0.2,2.1,0.6,2.5,0.8c1.2,0.4,2.5,0.6,3.7,0.7c0.6,0.1,1.1,0.1,1.6,0.2c0.3,0,1,0.1,1.8,0.1
		c1.5,0,3.4-0.1,3.8-0.2c0.2,0,0.6-0.1,1-0.2c0.7-0.1,1.2-0.2,1.4-0.3c0.8-0.2,3.4-1.1,3.4-1.8l0-0.4l-1.5-0.6
		c-0.6-0.3-1.3-0.5-1.9-0.8c-0.4-0.2-0.8-0.4-1.3-0.6c-0.8-0.4-1.7-0.8-2.5-1.1c-0.2-0.1-0.5-0.2-0.9-0.4c-0.6-0.2-1.2-0.5-1.4-0.5
		c-0.4-0.1-1.5-0.7-1.7-0.9c-0.1-0.1-0.2-0.2-1.1-0.9c-0.7-0.6-1.7-1.3-2.1-1.7c-0.1-0.1-1.5-0.9-2.2-1.1c-0.2-0.1-0.8-0.2-1.5-0.4
		c-1.3-0.4-3.2-0.9-3.9-1c-2.9-0.5-10.9-1.5-11.4-1.4c-0.5,0.1-0.8,0.3-0.9,0.6c-0.2,0.6,0.2,1.1,0.6,1.7
		C61,216.7,61.3,217,61.5,217.4z"/>
	<path class="st0" d="M129.5,266.8c0.7,1,6.3,8.6,7,9.5c0.7,0.9,1.7,2.1,2.6,1.1c2.1-2.4,3.2-6.3,3.3-9.6c0.1-3-2.5-5.6-4.4-7.6
		c-2.2-2.3-4.8-3.6-7.9-4.1c-1.3-0.2-2.8-0.9-3.6,0.2c-0.6,0.9-0.7,2.8-1,3.8c-0.4,1.3-1.2,2.5-1.9,3.7c-0.1,0.1-0.6,1-0.8,1.3
		c-0.3,0.2-2.4,2.8-3,3.4c-0.6,0.6-3.7,2.8-4.6,2.8c-0.8,4.4-0.8,8.7,0.2,12.8c0.5,2.1,3.3,7.3,3.5,7.5c0.4,0.6,3.2,5.1,4,5.1
		c0.9,0,2-2.4,2.6-3c1.3-1.5,2.7-3.1,3.9-4.8c0.9-1.3,2.5-6.7,2.4-8c0-0.6-0.6-4.7-0.8-5.5c-0.3-0.9-0.4-1.9-0.6-2.9
		c-0.5-2.5-1.3-5.2-2.5-7.7C128.2,265.7,129,266.2,129.5,266.8z"/>
	<path class="st0" d="M133,243.8c0.7,1.3,1.6,3.1,1.6,4.5c0,0.8-0.1,1.7,0,2.5c0.1,1.3-0.3,2.6-0.2,3.8c1,0.3,2.1,0.9,2.9,1.5
		c0.1,0,1.1,1.2,1.5,1.5c0.4,0.5,1,1.4,1.2,1.5c-0.1,1.4,2,2.8,1.9,2.3c0-0.8,0.2-1.4,0-2.2c-0.4-1.5-0.3-3-0.5-4.5
		c-0.2-1.1-0.5-4.8-0.4-5.9c0-0.5,0-2.9-0.1-3.7c-0.1-0.9,0.1-6.3,0-8.1c-0.1-1.6,0.1-3-0.2-4.6c-0.3-2.2-0.4-8.5-0.5-9.5
		c-0.1-0.8-0.8-5.9-0.9-6.1c-0.1-0.5-0.4-2.1-0.5-2.5c-0.1-0.4-0.4-4.8-0.5-5.7c0-0.2-0.2-0.6-0.2-1c0-0.6-0.5-5.8-0.6-6.6
		c-0.6-3.4,0.4-6.9,1-10.3c0.5-3,0.8-6.3,1.6-9.3c0.2-0.7,0.8-2.9,1-3.3c0.2-0.4,0.7-2.3,0.9-2.8c0.2-0.5,1.5-4.6,1.9-5.4
		c0.3-0.7,1.3-2.8,1.4-3.2c0.2-0.7,0.8-1.5,1-2.1c0.6-1.5,1.2-3,1.8-4.5c0.8-2.1,1.9-4.1,2-6.5c0.1-0.8,0-1.7-0.1-2.5
		c0-0.5-1.3-4.5-1.8-5.8c-0.3-0.6-1.3-2.7-2-2.9c0-0.1,0-0.2,0-0.3l-1.5-0.3c-1.4,2.6-4.7,10.6-5.2,11.8c-0.7,1.6-2.7,10-3.5,12.6
		c-0.9,2.7-1.3,5.6-1.8,8.5c-0.8,4.7-1.7,9.4-2.5,14.1c-0.4,2.1-0.7,4.1-1.1,6.2c-0.3,1.7-0.5,7.6-0.7,8.8c-0.1,0.8,0.1,4.4,0.1,5.5
		c0,1,0.2,4.9,0.2,6c0,0.7,0.1,1.4-0.1,2.2c-0.3,1.7-0.8,7.8-0.8,8.2c0,0.1,0,0.8,0,0.9c-0.1,1.9-0.1,3.6,0.3,5.5
		C130.6,236.1,131.2,240.5,133,243.8z"/>
	<path class="st0" d="M216.8,130.1c-0.9,5.1-1.2,11-3.5,15.7c-0.6,1.1,4.5,4.7,4.7,3.4c0.3-1.9,3.6-17,4.6-19.4
		c0.4-0.9,1.3-3.9,1.6-4.7c0.4-1,0.6-2.5,0.8-3.6c0.2-1,0.3-7.1,0.3-7.5c0-0.8,0-1.6,0-2.4c0-1-0.1-2.2-0.2-3.2
		c-0.1-0.7-0.2-1.3-0.4-1.9c-0.4-1.4-6.7-3.4-7.8-3.4l1.1,1.3c-0.2,0.7,0,1.2,0,1.8c0,0.6,0.3,2.4,0.3,2.8c0.1,0.5,0.3,3.1,0.3,4
		c0,0.9,0,1.6,0,2.5C218.8,120.4,217.7,125.2,216.8,130.1z"/>
	<path class="st0" d="M300.4,117.4c-0.9,0-1.8,1.9-2.2,2.4c-0.8,1-1.9,1.9-2.8,2.8c-1.3,1.2-2.8,2.1-4,3.4c-0.9,1-4.9,3.7-5.8,4.2
		c-0.6,0.3-1.4,0.5-2,0.7c-1.9,0.6-8.2,2.8-9.5,3.1c-0.7,0.1-7.3,0.7-9.9,0.2c-1-0.2-2-0.3-3.1-0.2c-1.2,0.1-2.7-0.3-4-0.2
		c-2.3,0.2-4.6,0.1-6.8,0.8c-1.5,0.5-6.2,2.9-6.9,3.6c-0.6,0.5-1.8,1-2.4,1.7c0.3-0.5,0.5-1,0.9-1.3c0.4-0.4,1.8-2.3,2.3-2.9
		c0.5-0.7,1.1-1.2,1.6-1.8c1-1.2,2-2.3,3.1-3.4c1.3-1.5,2.3-3.3,3.7-4.7c1.9-1.8,3.8-3.8,5.7-5.6c0.7-0.7,3.2-4,3.4-4.2
		c0.3-0.1,1.2-1.6,1.5-1.7c0.4-0.6,2.6-4,3.4-5.1c0.6-0.8,1.3-1.3,1.8-2.2c0.5-0.9,3.1-4.7,4-5.4c0.5-0.5,1-0.7,1.5-1.2
		c0.4-0.4,0.7-0.6,1-1c0.5-0.6-1.3,0-2.3,0.3c-1.8,0.5-4.1,0.5-5.7,1.5c-0.9,0.6-2.9,1.7-3.2,2.8c-0.2,0-0.9,1.2-1.2,1.8
		c-0.2,0.3-0.6,0.7-0.8,1.1c-0.3,0.7-3.4,4.6-4.7,6c-0.5,0.5-2.1,2-2.2,2.3c-0.3,0.2-1.1,1.5-1.5,1.9c-0.2,0.1-1.5,1.7-1.7,2
		c-0.5,0.8-0.9,1.4-1.5,2.2c-0.8,0.9-1.3,2-2.1,2.7c-0.6,0.5-2.2,2.5-2.5,2.8c-0.7,0.8-1.7,1.4-2.5,2.3c-0.6,0.7-1,1.3-1.6,2
		c-0.5,0.5-2.1,2.3-2.4,2.6c-0.6,0.5-1.2,1.2-1.8,1.8c-0.8,0.8-1.6,1.6-2.3,2.4c0.6-1,1.2-2,1.4-2.3c0.6-1,2.7-4.7,3.1-5.6
		c0.1-0.3,4-10.8,4.7-12.3c0.9-1.9,2.8-8.3,3-9.7c0.2-1.3,0.4-2.5,0.7-3.8c0.3-2,0.5-4,1.4-5.8c0.5-1.1,1.9-5.1,2.3-6.2
		c0.3-0.8,1.5-3.5,1.8-4c0.2-0.6,1.2-2.4,1.4-2.8c0.2-0.2,0.9-1.5,1-1.6c0.4-0.7,2.1-3.9,2.5-4.7c0.8-1.5,0.8-3.8,1.1-5.5
		c0.4-2.3,0.8-4.6,1.2-6.8c0.2-1.1,0.6-4.3,0.6-4.8c0.1-0.9,0.9-5.6,0.7-7.5c0-0.5-0.5-2.4-0.5-2.9c0-0.9-0.1-2.2-0.3-3.1
		c-0.2-0.8-0.3-1.3-0.4-2.1c-0.1-0.8-1.4-1.3-1.7-0.7c-0.2,0.4-3.5,6.9-3.9,8.1c-1.6,4.9-2.3,10.1-3.2,15.3c-0.3,2-0.2,3.8-0.6,5.7
		c-0.8,4.6-2.3,9.2-4,13.6c-1,2.6-1.8,5.4-3.2,7.8c-0.5,0.8-1,1.6-1.4,2.4c-0.7,1.5-2.3,5.3-2.7,5.8c-0.5,0.7-1.9,3.6-2.4,4.7
		c-0.4,0.9-2.4,4.1-2.8,5c-0.3,0.6-3.1,6.1-3.3,6.5c-0.2,0.4-1.1,2-1.4,2.4c-0.3,0.4-1.9,3.1-2.4,3.9c-0.5,0.8-1,1.5-1.4,2.3
		c-0.8,1.2-1.5,2.4-2.1,3.7c-0.6,1.1-1.2,2-1.7,3.2c-1.3,3.4-1.6,7.3-2.3,10.9l-0.4,4.7c0.2,0.1,0.7-0.1,1.3-0.4
		c-0.5,0.4-0.9,0.6-1.3,0.4l-0.2,1.1c0,0.5,0.2,1.2,0.4,1.8c0.1,0.3,0.9,1.8,1.1,1.9c1.1,0.8,11.1-5,12-5.3c0.8-0.2,7.4-1,8.6-1.5
		c1.2-0.5,2.4-0.8,3.6-1.3c1.6-0.8,3-2.1,4.6-3c2.7-1.5,4.8-4,7.6-5.4c0.3-0.1,1.5-0.7,1.8-0.9c1-0.6,5.3-1,6.7-1.1
		c1.2-0.1,2.2-0.4,3.5-0.4c1.1,0,2.2-0.2,3.3-0.1c2,0.1,11,1.5,13.5,1.4c1.5-0.1,2.8-0.5,4.3-0.8c2.8-0.6,6.1-1.8,8-4
		c1.6-1.9,2-4.6,2-7C300.2,125.5,301.7,117.4,300.4,117.4z M227.3,146.2c1.3-1.2,2.5-2.3,3.8-3.5c0.1-0.1,0.2-0.2,0.3-0.3
		C230.3,143.8,228.6,145,227.3,146.2z"/>
	<path class="st0" d="M306.8,16.7c0.6,0.2,1,0.5,1.6,0.7c0.7,0.2,1.6,0.3,2.4,0.4c-0.8-0.3-4.6,3.1-4.7,3.2c-1,1.6-0.7,4.6-1.3,6.5
		c0.5-0.3,3.2-0.7,3.7-0.8c0.6-0.2,1.2-0.2,1.7-0.3c0.9-0.3,2.2-0.7,3.1-1.2c0.7-0.3,3.9-3.6,4.1-5.1c-0.2,1.1-0.7,2.6-0.7,3.7
		c0,0.7,0.4,3.2,0.7,3.9c0.7,0.3,3.4-2.2,4.3-2.7c0.5-0.4,2.7-2.4,3.4-3c1.3-1,1.9-2.2,3-3.3c0.2-0.2,1.8-1.3,2.5-2.2
		c0.7-0.9,1-4.8,1-5.1c-0.1-0.6-0.4-1.9-0.6-2.2c0.1-0.2-1.1-2.8-1.7-3.5c-1.2-1.5-2.1-2.6-3.9-3.2c-1.1-0.4-4.9-1.7-5.8-1.9
		c-2.9-0.5-5.8-1.2-8.6-1.7c-1.7-0.3-3.4-1.1-2.4,1.2c0.6,1.4,1.5,2.5,2.3,3.7c0.2,0.2,3.7,3.7,4.3,4.1c0.8,0.5,0.9,0.9,2.1,1.1
		c0.3,0.1,0.7,0.1,1,0.2c-1.7-0.3-3.5-0.6-5.2-0.9c-1.2-0.2-2.4-0.2-3.5,0.3c-0.2,0.2-9.3,1.8-11,1.4
		C299.3,10.9,306.3,16.5,306.8,16.7z"/>
	<path class="st0" d="M319.9,65.8c0.5-0.1,6.6-1.9,7-2c0.4-0.1,4.3-1.3,5-1.5c1.2-0.4,2.4-0.8,3.7-1c1.1-0.2,9.3,0.2,11.3,0.2
		c1.3,0,7.8,0.6,9.9,1c1.3,0.2,2.6,0.4,3.9,0.7c1.5,0.3,2.6,0,4.1-0.5c0-0.7-2.2-1.3-2.9-1.5c-1.4-0.4-2.7-1-4.1-1.5
		c-1.7-0.6-3.4-0.9-5.2-1.2c-3.1-0.5-6.2-0.8-9.3-1.4c-1.2-0.2-8.2,0.7-8.9,0.7c-0.9,0.1-1.9,0.4-2.7,0.7c-2,0.9-3.9,2.1-6,2.9
		c-1.6,0.6-3.2,1.2-4.8,1.8c-0.6,0.2-1.6,0.2-2.3,0.5c2.2-1.9,10-8.6,11.6-9.8c0.8-0.6,3.8-2.6,4.3-2.8c1.3-0.7,8-3.9,9.9-4.9
		c1.8-0.9,3.9-1.3,5.7-2.2c0.9-0.5,1.9-1.2,2.8-1.8c0.8-0.5,1.1-0.6,0.9-1.6c-0.1-0.6-0.7-1.5-1.2-1.7c-0.5-0.2-1.4,0.3-1.9,0.4
		c-1.4,0.3-2.9,0.3-4.4,0.7c-1.6,0.4-6.9,2.9-8.2,3.5c-0.6,0.3-2.9,1.7-3.3,1.9c-0.4,0.2-4.9,3-6.8,4.3c-2,1.4-3.6,3-5.5,4.5
		c-1.2,1-2.3,1.9-3.4,3c-1.1,1-2.3,2.7-3.6,3.4c0.4-1.1,0.2-2.8,0.8-3.8c0.2-0.3,4.1-6.7,5.6-8.9c1.7-2.4,3.2-4.8,5.2-6.9
		c1.6-1.7,2.5-3.6,4.2-5.4c0.8-0.9,3.2-3.2,3.8-3.8c0.3-0.3,0.8-1.2,1.1-1.7c0.3-0.6,0.4-1.7,0.5-2.4c0.1-1.4-3.6-7.6-4.1-8.3
		c-0.9-1.2-2.4-1.5-3.7-0.9c-0.5,0.2-1.4,0.8-1.3,1.4c0.1,0.7,1.2,0.8,1.6,1.1c1,0.7,2.6,2,2.8,3.2c0.2,1.3-0.5,3.1-0.7,4.4
		c-0.2,1-0.6,1.7-0.9,2.7c-0.1,0.4-0.9,1.9-1.2,2.4c-0.4,0.6-1.7,3-1.9,3.2c-0.3,0.5-1,2-1.3,2.4c-0.3,0.4-1.2,2.4-1.5,3
		c-0.3,0.4-2.4,2.9-3.2,3.9c-0.7,0.8-1.4,1.6-2.1,2.3c-1,1.1-2,2.4-3,3.5c-0.6,0.7-1.7,2.1-1.9,2.5c-0.3,0.5-2.2,3.4-2.7,4.3
		c-0.3,0.6-2.3,4.2-2.7,4.8c-0.4,0.6-0.6,1.4-1,2.1c-0.4,0.7-0.9,1.8-1.5,2.4l-0.1,0.4c1,0.2,6.4-0.3,7.1-0.6
		c1.2-0.5,2.5-0.7,3.7-1.1C318.1,66.4,319,66,319.9,65.8z"/>
	<path class="st0" d="M355.6,43c0.7,0.5,1.5,1.1,2.4,1.3c1,0.2,2.3-1,2.2-0.8c-0.2,0.3-0.5,0.6-0.6,1c-0.1,0.3-0.1,0.6-0.2,0.8
		c-0.2,0.9-0.4,1.9,0.1,2.8c0.4,0.8,1.3,1.4,2,1.9c0.7,0.5,3.3,1.3,4,1.1c1.3-0.4,2.7-0.7,3.5-1.9c0.2-0.4,0.6-0.8,0.7-1.2
		c0.1-0.3,0.2-0.7,0.2-1.1c0.7,0.9,1.8,1.6,2.7,2.3c1.1,0.7,2.3,1.5,3.5,1.8c0.8,0.2,1.2,0.2,1.9-0.3c0.8-0.5,1.3-1.1,1.9-1.8
		c0.7-0.8,1.5-1.8,1.7-2.9c0.4-1.8,0.3-3.4-0.5-5c-0.6-1.2-1.6-2.1-2.8-2.7c-1.1-0.5-2.2-0.8-3.4-1c-0.8-0.2-1.7,0.2-2.5,0
		c1.1-0.4,2.5-0.5,3.7-0.7c0.8-0.1,1.4-0.2,2.2-0.5c0.8-0.3,1.3-0.8,1.9-1.3c0.5-0.4,1.5-2.2,1.5-2.5c0.1-0.4,0.3-0.7,0.4-1.1
		c0.2-0.8,0.3-1.5,0.2-2.3c0-0.3-0.4-2.3-0.6-2.9c-0.2-0.4-2.4-1.7-3.1-1.9c-1.6-0.5-3.5-0.8-5,0.1c-1,0.6-1.5,1.3-2.1,2.3
		c-0.3,0.6-0.6,1.1-0.9,1.7c-0.1,0.2-0.3,0.7-0.4,0.8c-0.1-1.6,0.7-3.3,0.3-4.9c-0.1-0.3-1.1-1.4-1.4-1.6c-1.5-0.9-3.4-1.2-5.1-1.5
		c-0.9-0.1-1.6,0-2.4,0.3c-0.6,0.2-0.8,0.4-1.2,0.9c-0.3,0.5-1.2,4.3-1.3,5c-0.1,0.8,0,1.5,0.1,2.3c0.2,1.1,0.4,2.1,1.2,2.9
		c0.3,0.3,0.5,0.5,0.8,0.7c-1-0.2-2.2-0.3-3.2,0c-0.5,0.2-1,0.3-1.4,0.6c-0.5,0.3-1.2,0.8-1.6,1.4c-0.3,0.5-0.6,1-0.9,1.5
		c-0.2,0.3-0.7,1.5-0.8,1.8C353.4,40.3,354.2,42,355.6,43z"/>
	<path class="st0" d="M386.3,27.6c1,1.2,2.9,2.2,4.3,2.8c3.4,1.7,7.1,2.9,10.9,4.3c5.3,1.9,11.5,3.4,17.1,2.8
		c1.4-0.1,10.3-0.8,11.5-1c0.8-0.1,1.8-0.4,2.6-0.3c-0.3-1.9-4.2-3.8-5.8-4.4c-2.6-1-5.3-2-7.8-3.1c-3.2-1.4-6-2.1-9.4-2.7
		c-0.8-0.1-1.6-0.3-2.4-0.5c3.2,0.5,6.6,0.9,9.8,0.9c3.4,0,7.3-0.1,10.6-1.2c0.7-0.2,3.2-1.4,3.8-1.8c1.7-1.2,3.4-2.9,4.8-4.5
		c1.3-1.5,2.3-3,3.4-4.6c0.6-0.8,2.6-3.1,2.9-3.9c-1.6-0.2-3.2-0.3-4.8,0c-1.3,0.2-5.9,0.2-7.2,0.6c-0.8,0.2-4.3,0.6-5.1,0.8
		c-0.9,0.2-3.9,1.2-4.8,1.7c-1.8,0.9-8.1,3.8-9.7,4.8c-2.2,1.4-4.2,2.8-6.3,4.3c1.9-2.3,4.6-3.9,6.5-6.1c1.8-2.1,3.4-4.9,5.4-6.8
		c1-0.9,1.4-1.6,2.1-2.7c0.7-1,3.8-7.5,2.9-7.2c-1.2,0.4-2.2,0.7-3.4,0.9c-1.4,0.3-8.3,3.8-9.3,4.6c-1.5,1.2-4.9,3.6-5.1,4
		c-0.5,0.4-4.2,2.5-5,3.1c-0.8,0.6-1.4,0.9-2.2,1.4c-1.6,0.9-8.2,6-9,6.9c-0.7,0.9-3.3,3.5-3.7,4.1
		C383.4,25.7,386.1,27.5,386.3,27.6z"/>
	<path class="st0" d="M273.9,268.8c-3.4-0.2-6.9-0.2-10.3-0.5c-3.2-0.2-15.7,0.8-16.8,0.9c-7.1,0.6-14.2,1.7-21,3.6
		c-5.2,1.4-10.5,2.7-15.4,5c-3.6,1.7-7.2,3.6-10.7,5.5c-1.6,0.9-9.1,4.7-11.4,5.8c-1.8,0.9-3.4,1.7-5.1,2.7
		c-0.1,0.1-0.4,0.2-0.7,0.5c-1.9,0.7-5.3,2.6-6.1,3.2c-0.6,0.5-1.1,0.8-1.8,1.3c0,0,0,0,0,0c-0.2,0-0.3,0-0.4,0l0.4,0.1
		c-0.5,0.4-1,0.8-1.5,1.2c-1.4,1.1-2.7,2.2-4.1,3.3c-1.9,1.6-3.8,3-5.7,4.7c-0.9,0.8-1.8,1.6-2.8,2.3c-0.8,0.6-5.3,3.8-6.6,5
		c-1.3,1.2-2.5,2.3-4,3.4c-1,0.7-4.3,3.2-5.1,3.8c-0.5,0.4-2,1.8,0.1-0.5c0.8-0.9,1.6-1.6,2.2-2.4c1-1.1,2.1-2.1,3-3.3
		c0.7-0.9,1.3-1.8,2-2.7c0.3-0.5,2.1-3.3,2.3-3.6c0.3-0.2,1.6-1.9,2.1-2.4c0.7-0.8,2.8-3.5,3.2-4.1c0.6-1,3-4.6,3.7-5.4
		c1.6-2,6.4-8.7,6.8-9.1c0.4-0.4,6.7-6.6,7.4-7.3c0.7-0.7,5.3-5.4,6.9-7.1c0.8-0.9,1.4-3.7,0.7-3.4c-1.2,0.5-2.4,0.9-3.7,1.4
		c-1.6,0.6-3.2,1.2-4.7,1.9c-0.6,0.3-4.9,2.8-5.5,3.3c-0.8,0.7-1.6,1.3-2.5,2.1c-2,1.6-4.1,2.9-5.9,4.7c-2.6,2.6-5.3,4.8-7.2,7.9
		c-0.7,1.1-3.5,5.7-4.2,6.9c-1.5,2.5-3.3,4.9-4.8,7.3c-1.7,2.8-3.6,5.5-5.5,8.2c-1,1.5-2.2,2.7-3.3,4.1c-0.3,0.4-4.6,5.5-7.5,9.4
		c0.1-0.2,0.2-0.4,0.3-0.6c0.5-1.2,2.5-5.1,3-5.9c0.3-0.5,1.1-1.8,1.3-2.1c1-2,2.6-4,3.4-6.2c0.3-0.8,3.4-8.1,3.7-8.9
		c0.1-0.4,0.8-2,1-2.4c0.5-1,1.7-4.6,2.1-5.5c0.2-0.4,2.5-5.1,3.2-6.4c1.9-3.7,5.1-7.2,7.5-10.8c2.3-3.3,5.3-6.1,7.7-9.3
		c1.2-1.6,8.6-9.9,9-10.4c0.4-0.5,2.5-2.7,3-3.1c0.7-0.7,1.3-1.3,2.1-2c1.5-1.2,2.9-2.6,4.4-3.7c0.6-0.5,8.6-6.4,9-7.6
		c0.2,0,2.5-4.3,3.1-5.2c0.3-0.4,1.4-1.3,1.4-1.5c0.2-0.2,1.5-1.9,1.9-2.3c0.5-0.5,1.9-1.5,2-1.7c0.8-0.1,0.7-0.7,0.4-0.8
		c-0.9-0.3-1.9-0.4-2.8-0.6l0.4,0.1c0,0.8-0.5,1.2-1.1,1.5c-0.4,0.2-1.9,1.6-2.5,2.1c-0.5,0.4-1,0.8-1.5,1.2c-1,0.7-5.5,3.9-7,4.9
		c-0.8,0.5-1.5,1.2-2.3,1.8c-0.8,0.5-3.9,2.8-4.7,3.5c-0.8,0.6-1.3,1.2-2,1.8c-0.2,0.2-1.5,1.4-1.8,1.8c-1.2,1.2-2.6,2.2-3.7,3.3
		c-1,1-1.9,2.1-2.9,3.2c-0.3,0.4-1.6,1.8-1.9,2.2c-0.4,0.5-9.1,9.6-11.3,13.3c-0.3,0.4-2.1,3.3-2.4,3.9c-0.9,1.8-4.7,7.1-5.5,8.1
		c-0.4,0.6-0.8,1.1-1.2,1.6c0-0.1,0.1-0.2,0.1-0.3c1.1-3.9,1.5-8.3,2.2-12.4c0.7-4.1,2.7-7.6,3.4-11.8c0.4-2.1,2.9-8.6,3.2-9.4
		c0.3-1.1,0.6-1.4,1.1-2.4c0.3-0.5,0.6-1,0.9-1.5c0-0.2,3.2-5.7,3.7-6.5c0-0.1,0.3-0.8,0.7-1.3c0.3-0.3,1.1-2.1,1.3-2.3
		c0.7-0.7,0.6-1.2,1.2-2c1.1-1.5,6-9.2,7.6-11.2c1.1-1.3,4-5.3,3.6-6.1c-0.3-0.7-4-1.2-5.1-1.4l0.4,0.1c0,1.8-1.6,3.4-2.6,4.7
		c-0.4,0.5-2,2.7-2.3,3.2c0,0.3-1.6,3.2-2,3.9c-0.4,0.9-0.9,1.7-1.3,2.6c-0.3,0.6-0.5,1.2-0.7,1.8c-0.4,0.8-1,1.7-1.5,2.5
		c-1.1,1.8-2.2,3.6-3.3,5.5c-1,1.8-4.6,9.2-5.7,11c-0.5,0.8-1.3,4.2-1.7,5.1c-0.2,0.4-2.5,7.6-2.7,8.1c-0.2,0.5-3.1,10.3-3.7,12
		c-0.4,1.1-0.7,2.2-1.1,3.2c-0.2,0.5-1.6,6.2-1.9,7.9c-0.7,3.8-1.3,7.6-2,11.4c-0.1,0.4-0.2,0.7-0.3,1.2c-0.2,0.4-0.5,0.9-0.7,1.3
		c-0.6,1.1-1.4,2.3-1.9,3.5c-0.3,0.7-0.4,1.4-0.7,2.1c0,0.1-0.1,0.1-0.1,0.2c0-0.3,0.1-0.6,0.2-0.9c0.3-0.9,0.7-1.4,0.9-2.4
		c0.7-4.1,1.4-8.2,2.2-12.3c0.2-1,0.5-2,0.5-3c0.1-0.8,1.3-6,0.8-7.2c-0.3-0.8-1.3-0.5-1.8-0.9c-0.6-0.3-1.1-1.1-1.4-1.6
		c-0.4-0.6-0.6-1.2-1.1-1.8c-0.4-0.5-1-0.9-1.1-1.5l-0.4-0.1c0.3,1.5-0.2,7.7-0.2,8.4c-0.1,2.9-0.1,5.7-0.6,8.6
		c-1.4,8.1-2.9,16.2-4.3,24.3c-0.6,3.4-1.2,6.8-1.8,10.2c-0.5,2.9-0.6,6.4-1.7,9.1c-0.7,1.7-1.8,3.3-2.5,5c0.2-1.5,0.3-2.8,0.3-4.3
		c0-2,0.2-4,0.3-6.1c0-1.3,0-2.7,0.2-4c0.2-1,0.2-1.8,0.1-2.7c-0.1-2.3,0.8-5,1.2-7.4c0.3-1.9,0.5-7.2,0.4-8.2
		c-0.1-0.6-0.2-2.3-0.3-2.7c-0.1-0.6-0.6-2.8-0.6-3.2c0-0.7-0.6-3-0.8-3.2c-0.2-0.2-1.2-1.6-1.8-2c-0.2-0.1-1.5-1-2-1.2
		c-0.6-0.3-2-0.4-2.5-0.3c0,0.9,0,4.1,0.1,4.8c0.1,0.4,0.3,1.9,0.4,2.3c0.1,0.7,1.3,9.2,0.7,12.6c-0.5,3-0.8,5.9-1.2,8.9
		c-0.2,1.5-0.4,6.4-0.6,7.4c-0.1,0.5-0.1,1-0.2,1.5c-0.2-0.3-0.8-1-0.9-1.4c-0.3-0.7-0.7-1.4-1-2c-0.8-1.5-3.3-7.2-3.7-8.6
		c-0.1-0.5-1-3.4-1-3.9c-0.2-2.7-1.5-5.3-2.5-7.7c-0.7-1.6-1.1-3.4-2-4.8c-0.5-0.9-0.8-2-1.5-2.8c-0.7-1.3-1.7-2.6-2.5-3.6
		c-0.9-1.2-6.4-4.9-6.9-5.2c-0.4-0.3-2.4-2-3.1-2.4c-1.4-1-3-1.8-4.8-1.8c-0.5,0.7,2,6,2.5,7.3c0.3,0.8,1.6,2.7,2,3.4
		c0.9,1.5,7.6,10.4,10.4,13.5c1,1.2,2.5,3,3.1,4.6c0.3,0.7,3.1,8,3.3,8.4c0.3,0.6,0.9,5.9,0.8,7.9c-0.1,2.1,0.1,4.2,0.1,6.3
		c0,0.9-0.5,4.8-0.6,5.9c0,0.5-0.1,0.9-0.1,1.4c0-0.3-0.1-0.6-0.2-0.8c-0.5-1-1,0.7-1.1,1.1c-0.1,0.4-4.3,4-4.3,4l2-2.2l2.9-4.7
		l0.8-4l-0.6-9.3l-2.2,5.7l-4.5,13.1l-5.6,11.8l-5.4,12.3l-4.4,9.4l-2.9,7.1l-3,5.1c0,0,2.3,0.4,3.4,0.7c1.1,0.2,3.1-0.2,3.1-0.2
		s3.6-1.8,5.8-2.9c2.2-1.1,2.3-1.7,3.1-2.5c0.8-0.7,1.3-2,1.6-2.5c0.4-0.5,0.9-2.4,1.3-3.4c0.4-1,0.6-2,1.1-3.6s1.1-3.7,1.1-3.7
		l0.5-3.6l-2.1,2l-5.9,3l1.6-1.4c0,0,1.5-1,3.1-2.2c1.5-1.2,3.9-3.4,5-4.3c1-0.9,2.6-4.3,2.8-5.4c0.2-1.1,0.5-2.5-0.4-4.9l-1.1,1.1
		c0,0-6.4,3.8-6.8,3.7c0,0,3.7-3.2,4.4-3.5c0.7-0.3,3.1-2.2,3.9-3.1c0.8-0.8,2.3-4.9,2.4-5.5c0-0.1,0-0.1,0-0.2
		c-0.9,7-2.3,14.3-4.2,20.8c-2,6.6-3,13.7-4.1,20.6c-0.1,0.5-0.2,1.1-0.3,1.6c-0.2,1-0.3,2.1-0.5,3.1l-0.1,1.3
		c-0.4,2.7-0.9,5.7-1.1,6.9l-3.4,5.3l-2.9,6.7l-7.1,19.2l-6.9,15.1l-1.5,1.9l2-5c0,0,1.9-7.3,2.4-8.7c0.5-1.4,1.3-4.8,1.3-4.8
		l2.5-10.6c0,0,3.1-9.9,3.3-11.6c0.3-1.7,0.7-4.2,1-5.5c0.2-1.3,0.7-4.1,1.2-6.8c0.5-2.6-1.2-5.6-1.2-5.6s-4.1,6-5.4,7.2
		c-1.3,1.2-1.3,7.5-1.3,7.5s-1.3,7.2-1.4,8c-0.1,0.8-2.1,8.8-2.1,8.8L75,439.6l-2.5,11.3l-5.2,13l-1.2,3.2l-5.9,9.7l3-8.2l4.1-12.1
		l4-16.3l2.9-14.1l2.6-21.1l-0.3-7.6l1.4-2.2c0,0,1.6-3.2,2.4-4.8c0.7-1.6,1.9-4.8,3.3-7.7c1.4-2.9,2.8-7.1,4.1-9.5
		c1.3-2.4,3.7-7.4,4.3-8.4c0.6-1,3-6.9,3.6-8.2c0.7-1.3,3.2-8,3.3-8.7c0.1-0.6,2.3-5.7,2.3-5.7l3.6-9.2l-4.1,6l-7.4,17.1l-7.4,16.2
		l-10.1,19.7l-2-9.2l-5.2-13l-8.5-15.5l-6.9-11.7l-7.9-11l-12.5-16.6l7,11l7.3,11.5l11.3,20.9l8.7,18.3l5,15l1.1,3.9l0.3,2.1
		l-8.3,4.3l-8.3,6.2l-9.2,9.5l-15.2,14.3l-4.2,5.6l-9.2,11.8L37,431.6l9.1-7.7l9.7-8.9c0,0,6.5-5.8,6.8-6.4c0.3-0.6,7.4-5,7.4-5
		l3.5-2l0,0L72.4,415l-3.2,15.8L65,452.7l-2.2,8l-3.2,9.4l-5.4,10.7l-13.2,22.2l-8.7,12.6l-10.7,14.4l-10.1,11.3L0,553.8l0.3,10.4
		l17.3-21.5l5.4-7.1l8.1-10.1l2.8-3.6l6-8.1l4-5.4l6.3-7.6l7.3-8.1l7.3-5.5l9.3-8.6l8.2-6.8l1-0.9L85,474l0.2-1.3c0,0,0.4-2.3,0.5-3
		c0-0.3,0.1-0.8,0.2-1.3l0.4-0.3l0.3,1.6l1.2,5.6l1.1,2.6l2.8,2.5l3.5,2.4l-0.1-1l-1.2-6.4c0,0,2.4,5,2.7,5.9
		c0.3,0.9,4.1,2.5,4.1,2.5l3.6,0.6c0,0-3.2-7.7-3.3-8.4c-0.1-0.7-3.1-5.8-3.1-5.8l-5.4-6.2l-0.7-0.7l0.4-0.4l0.7-0.6l0.6,0.5
		l3.5,3.7l3,5.1c0,0,2.5,5.4,2.6,6.1c0.1,0.7,2,4.9,2,4.9l0.1-0.8l-1-4.3l-1.1-3.5l-1.6-4.6l-2.1-4.3l-2.7-3.4l-1.2-1l1.7-1.3
		c0.6,1.3,3.3,5,3.3,5l1.9,5.7l1.8,6l1.2,4.3l1.8,3.6l1.4-5.6l0.3-5.6l-1.6-4.5l-4-4.6l3.7,1.5c0,0,1.5,1.5,2.3,1.7l-0.3-3.5
		l-1.4-3.9l-4.8-4.3l0.3-0.3l2.8-2.8c0,0,0.1,0,0.1,0c0.2,0,0.3,0,0.5,0c0.2,0,0.3,0,0.5,0c0.6,0,1.2,0.1,1.8,0.1l0.3,0
		c0.1,0,0.3,0,0.4,0c0.2,0,0.4,0,0.7-0.1c1.6-0.3,1.9-0.4,2-0.4c0.5-0.2,1.1-0.3,1.2-0.3c0.6-0.1,3.4-0.8,3.9-1
		c0.1,0,5.5-2.6,6.2-3.7c0.4-0.6,0.5-1.4,0.6-2l0-0.2c0-0.2,0-0.5,0-0.8c0-0.1,0-0.3,0-0.5c0.6-0.2,1.9-0.5,2.8-0.7
		c2.2-0.6,2.4-0.6,2.6-0.7c1.1-0.6,1.9-1.2,2.6-1.8c1.3-1.1,2.3-2.3,3.1-3.4c0.9-1.3,1.1-2.9,1.4-4.3l0.1-0.8c0,0,0,0,0,0
		c0.2,0,0.7-0.1,1.1-0.1c1-0.1,1.3-0.1,1.4-0.2c0.9-0.2,1.5-0.4,2.2-0.7c0.6-0.3,2.2-1.4,2.6-1.6c0.6-0.4,2.5-2.8,3-3.4
		c0.7-0.9,2.7-3.7,3.2-4.3c0.8-1.2,1.3-2.5,1.3-3.9l0-0.7l-0.7-0.2c-2-0.7-4.6-0.8-6.2-0.6c-1.1,0.1-2.3,0.4-3.3,0.6l-0.4,0.1
		c-5.2,1.2-7.8,2.1-8.6,3c-0.2,0.1-0.3,0.3-0.4,0.4c0,0-0.1,0-0.1,0c-0.1,0-0.1,0-0.3-0.1c-0.2-0.1-0.3-0.2-0.5-0.2
		c-1.6-0.5-3.5-0.8-5-0.6c-0.6,0-2.5,0.8-2.9,1c-0.2,0.1-0.3,0.2-0.5,0.3c-0.3,0.2-0.7,0.4-1.1,0.7c-0.3,0.2-1.9,1.4-2.4,1.8
		c-0.3,0.3-1.2,1.2-1.4,1.4c-0.1,0.1-0.2,0.2-0.3,0.3c-0.3,0.3-0.6,0.6-0.9,1.1c-0.2,0.4-0.5,0.8-0.7,1.2c-0.4,0.8-0.9,1.6-1.4,2.1
		c-0.1,0.1-0.6,0-0.8,0c-0.4,0-0.8-0.1-1.3,0c-0.5,0.1-1,0.2-1.4,0.3c-0.3,0.1-0.6,0.1-0.9,0.2c-1.1,0.2-3.2,2-3.8,3
		c-0.4,0.6-0.6,1.6-0.7,2.7c0,0.1-1,9-1,9.4c0.1,0.6,0.1,1.2,0.1,1.9c0,0.8,0,1.5,0.1,2.3c0,0.1,0,0.3,0,0.4l-0.1,0.1l-3.3,2.6
		l-1.8-3l-4.2-2.3l-6.3-1.1l-3-0.5l0.3-0.4l7.1-5.5l8.5-11.3c0,0,5.1-2.8,6.3-3.7c1.2-0.9,3.8-4.5,3.8-4.5l2.8-4.9l7.4-7.6l4.5-2.2
		l7.1-1.8l3.9-1.1c0,0,3.4-0.9,5-2.4c1.6-1.5,2.7-3,2.7-3l-2.8,0.8l-4.7,0.5l-5.5,0.8l2.4-0.7l3.7-1.1l4.4-1.6l3.2-1.8
		c0,0,4.6-3.8,5.3-4.3c0.7-0.5,3.2-3.1,3.2-3.1l-5.7,1.6c0,0-1.6,0.5-3.2,1.1l6.9-4.7l2-0.4l5.8,0.4l3.4,0.6l4.6,0.8l4.5,0.8
		l4.9,1.4l3.2,0.7c0,0,1.8-0.4,2.1-0.8c0.5-0.7,0.4-1.1,0.4-1.1s0.1-0.8-0.8-1.9c-0.9-1-0.6-1.4-0.6-1.4l1.1-1.3
		c0,0,0.3-1.5,0.4-2.1c0.1-0.6-0.3-1.2-0.3-1.2l-1.4-1.1l0.3-1.9l-0.8-1.5c0,0-3.6-0.6-4-0.7c-0.4-0.1-6.2,0.6-6.2,0.6
		s-2.2,0.4-5.2,1l2.8-1.9l5.3-1.8l6-0.5l4.9,0l3.9-0.3l3.9-1l4.2-1.7c0,0,2.5-0.8,4.3-0.9c1.8-0.1,7.8-0.7,8.2-0.6
		c0.4,0.1,3.8-0.9,3.8-0.9s0.4-1.2,0.3-1.9c-0.1-0.7-2.1-1.9-2.8-2.5c-0.8-0.6-11.9-4.6-13.4-4.9c-1.5-0.3-4.4-0.2-5.5,0
		c-1.1,0.2-8,1.8-9.1,2.2c-1.2,0.4-5.5,2.8-5.5,2.8l-5.1,3l-6.4,5.1c0.3-0.8,0.9-2.3,1-2.6c0.1-0.4,0.2-2.4,0.3-3
		c0.1-0.6,1.6-4.3,2.1-5.5c0.4-1.2,2.7-1.7,2.7-1.7s4-1.9,4.5-2.2c0.5-0.3,3.5-2.4,4.3-3.2c0.8-0.7,1.9-3.6,2.1-4.4
		c0.1-0.8,0.1-4.1,0.1-4.1l-1.1-0.2l-2.5,0.6l-2.2,0.9l-4.1,2.7l-2.2,2.4l-1.6,1l-3,0.9l-2.5,1.6c0,0-2.2,2.4-2.8,3.4
		c-0.6,1-1.5,3.9-1.6,4.3c-0.1,0.4-1.5,0.8-1.5,0.8l-3,0.3l-2.8,1.7l-1.8,1.8c0,0-1.6,3.2-2.3,4.4c-0.6,1.2-3.4,5.5-3.4,5.5
		l-5.8,7.2l-10.3,10.6l-13.8,15.3l16.8-25.2l6.8-9l-5.8,3.5l-4,5.6l-11,16.6l-26.2,28.7l0.9-2.3l4.2-10.4l0,0.3c0-0.1,0-0.2,0.1-0.4
		l3.5-8.6l6.9-11.8l5.3-10.7l9.8-15.8l7.2-9.2l4.3-3.1l9.6-3.9l-3.9-1l-4.1-0.4l-6.2,1.2l-3.2,2.3l-8.6,12.5l-10.3,18
		c1.3-3.2,2.5-5.9,2.8-6.4c0.7-0.9,1-1.5,1.5-2.5c0.9-1.9,2.4-3.4,3.1-5.3c0.6-1.6,3.5-5.9,4-6.9c0.4-0.8,0.5-1.6,0.9-2.5
		c0-0.1,0.6-1.9,1.1-3.9c3.1-3.2,8.5-8.5,8.9-8.9c0.8-0.7,19.6-9.5,26.1-10c1.6-0.1,8.5-0.7,10.3-1.1c1.6-0.4,8.4-1.5,8.6-2.5
		c-1-0.5-5.2-1.9-6.6-2.1c-2.8-0.5-5.6-1-8.5-1.5c-1.4-0.2-9.3-0.6-11.7-0.8c-1.9-0.1-2.9,0.1-4.6,0.7c-1,0.4-1.5,0.7-2.3,1.2
		c0.2-0.8,1.1-1.4,1.7-1.9c0.7-0.7,1.5-1.1,2.3-1.6c2.5-1.6,5.2-3,8-4.2c1.8-0.8,3.4-1.7,5.4-2.1c0.9-0.2,6.4-1.1,7.4-1
		c1,0.1,4.1,0.1,5.1,0c0.5-0.1,10.7,0.2,13.7-0.1c0.6-0.1,5.4-0.8,6.9-1c2.1-0.4,4.1-1.4,6.2-1.9c-0.7,0-1.2-0.5-1.8-0.7
		c-0.6-0.2-3.9-1.5-5.3-1.8c-2.9-0.5-5.8-1-8.8-1.5c-1.9-0.3-3.7,0-5.6-0.1c-0.8,0-8.5,1.3-10.2,1.7c-0.9,0.3-1.8,0.6-2.5,1.1
		c1.5-1.5,2.9-3.1,4.8-3.8c1.4-0.6,2.2-1.7,3.6-2.5c3-1.7,5.8-3.2,8.7-4.5c0.7-0.3,12.1-2.3,13.2-2.5c0.8-0.1,3.8-0.7,4.3-0.9
		c0.8-0.3,4.9-1.8,5.8-1.6c-0.7-0.6-3.8-2.1-4.7-2.5c-0.3-0.1-0.5-0.2-0.8-0.3c4.7-1.9,9-3.6,11.5-4.1c1.5-0.3,8-0.2,9.8-0.2
		c3.2,0,6.7,0.1,9.9,0.4c2.1,0.2,4.2,0.6,6.3,0.8c2,0.3,4.7,0.7,4.1,0.3c-1-0.7-1.2-0.6-2.2-1c-0.9-0.4-4-1.4-4.6-1.6
		c-4.2-0.9-8.4-1.7-12.7-2.1c-1.7-0.2-3.5-0.1-5.2-0.2c-0.3,0-0.7,0-1.2,0.1c3.3-0.7,7.2-1.7,8-1.9c0.6-0.2,6.3-0.8,8-1
		c0.1,0,0.3,0,0.3,0c4.6-0.6,9-1.2,13.7-1.6c2.2-0.2,11.4,0.2,14.1,0.7c2.7,0.5,5.6,0.6,8.2,0.5c1.2,0,5.7-0.5,7.2-0.8
		c2.5-0.5,9.5-1.2,10.3-1.3c0.6-0.1,4-0.4,5.6-1.4c-1.1-2.4-8.8-2.7-11.5-3.2c-2.6-0.5-11.5,0.6-13.4,0.1c2.5-1.8,17.7-3.2,21.3-3.7
		c3.1-0.5,6.3-0.9,9.3-1.6c2-0.5,4-0.9,6.1-1c0.9-0.1-7.1-1.6-12.3-2.5C282.8,270.3,278.3,269,273.9,268.8z M106,445.9
		c0-0.7,0-1.3-0.1-2c0-0.8,0.8-8.4,1-9c0.1-0.5,0.3-1.6,0.5-2c0.4-0.7,2-1.9,2.5-2.1c0.3-0.1,0.6-0.1,1-0.2c0.4-0.1,0.8-0.2,1.3-0.3
		c0.2,0,0.5,0,0.8,0c0.7,0.1,1.7,0.2,2.5-0.6c0.7-0.7,1.2-1.6,1.7-2.5c0.2-0.4,0.4-0.7,0.6-1.1c0.2-0.3,0.4-0.5,0.6-0.8
		c0.1-0.1,0.3-0.3,0.4-0.4c0.2-0.2,1-1.1,1.3-1.3c0.4-0.3,1.7-1.4,2.2-1.7c0.3-0.2,0.6-0.4,0.9-0.5c0.2-0.1,0.4-0.2,0.5-0.3
		c0.3-0.2,1.8-0.7,2.1-0.7c1.2-0.1,2.9,0.1,4.2,0.5c0.1,0,0.2,0.1,0.2,0.1c0.3,0.1,0.7,0.4,1.3,0.3c0.8,0,1.1-0.2,1.5-0.7
		c0.1-0.1,0.1-0.2,0.3-0.3c0.3-0.3,1.5-1,7.7-2.5l0.4-0.1c1-0.2,2-0.5,3-0.6c1.6-0.1,3.3,0,4.7,0.3c-0.1,0.7-0.4,1.4-0.9,2
		c-0.5,0.7-2.5,3.4-3.1,4.2c-0.6,0.8-2.3,2.8-2.7,3.1c-0.2,0.2-1.7,1.2-2.2,1.4c-0.5,0.3-1,0.4-1.8,0.6c-0.2,0-0.7,0.1-1.2,0.1
		c-0.5,0.1-1,0.1-1.2,0.1c-1.2,0.2-1.5,0.7-1.7,1.7l-0.1,0.8c-0.2,1.3-0.4,2.6-1,3.5c-0.7,1-1.6,2-2.8,3.1c-0.6,0.5-1.3,1-2.2,1.6
		c-0.3,0.1-1.3,0.4-2.2,0.6c-3.5,0.9-3.6,0.9-3.9,1.2c-0.5,0.5-0.5,1.3-0.4,2.1c0,0.2,0,0.3,0,0.4l0,0.2c-0.1,0.4-0.1,0.9-0.3,1.1
		c-0.5,0.6-4.7,2.8-5.3,3c-0.4,0.2-3,0.8-3.4,0.9c-0.4,0-1.4,0.3-1.7,0.4c-0.1,0-0.4,0.1-1.8,0.4c-0.1,0-0.4,0-0.6,0
		c-0.1,0-0.2,0-0.3,0c-0.3,0-0.6,0-0.9,0l3.5-3.5l5.6-4.7l12.3-10.7l6.9-5.7l6.9-5.5l-2.6,0.2l-12,7.7l-13.9,11l-8,7.8
		C106,446.4,106,446.2,106,445.9z M70.4,476.5l-8.1,6.6l2.3-4.4l4.8-7.4l5.7-7.7l2.3-4.4l2-4.5l0.7,6.6l1.6,5.1l-5.6,3.9L70.4,476.5
		z M89.2,460.6l-3.6-3.8l-5.5-3.9l0.5-1.1l5.8,4.2l1.4,1.8l2.3,2.1L89.2,460.6z M95.3,450.6l3,0.2l2,0.9l-1.9,1.6l-3-1.3l-2.2-1.3
		L95.3,450.6z M88.8,452.5l3.9,2.4c0,0,0.8,0.7,1.7,1.5l-1.9,1.5l-1.2-1.7l-4.4-3.2l-3-2.5l-2-1.8l0.2-0.6l0.2,0.5L88.8,452.5z
		 M145.6,377.2l5.5-3.2l5-2c0,0,2.7-0.7,4.6-1.2L140,381.7L145.6,377.2z M128.7,328.7c0-0.1,0-0.1,0-0.2
		C128.8,328.5,128.7,328.6,128.7,328.7C128.7,328.7,128.7,328.7,128.7,328.7z"/>
	<path class="st0" d="M204.6,167.7c-0.6-1.2-2.5-2.3-3.9-2.4c-1.4-0.1-2.8-0.2-4.1,0.3c-0.7,0.3-2.7,1.1-3,1.1
		c-0.2-0.5-0.6-1.1-0.9-1.6c-0.3-0.4-0.8-1-1.2-1.3c-1.3-0.9-2.7-1.2-4.2-1.2c-0.7,0-1.4,0.2-2,0.2c-0.3,0-2.7,0.8-3,1
		c-0.6,0.5-0.7,0.1-0.7,0.8l0.1,0.1c0.4,0.5,0.4,0.5,0.7,0.8c0.2,0.1,1.5,1.3,1.8,1.6c0.3,0.3,1.9,1.9,2,2c0.2,0.2,4,3.2,4.3,3.4
		c0.2,0.2,0.8,0.8,1,1c0.4,0.3,1,1,1.3,1.4c0.3,0.4,3,3.9,3.4,4.3c0.3,0.4,0.5,0.9,1,1.3c4-2.1,7.7-3.1,8.8-3.4
		c0.3-0.1,4-0.4,4.9-0.4c1.1,0,2.4,0.2,3.6,0.4c0.9,0.2,1.8,0.3,2.8,0.5c1.3,0.3,2.7,0.6,4,0.4c0.1-0.2-0.7-2.6-1.1-3.2
		c-0.1-0.2-1-1-1.4-1.2c-0.7-0.5-1.7-0.6-2.6-0.6c-0.4,0-1.4,0.6-1.6,0.1c-0.3-0.9-1.9-2.4-2.8-2.9c-0.5-0.3-2.2-0.7-3-0.7
		c-0.6,0-2.8,0.3-3.2,0.9C205.6,170,204.9,168.3,204.6,167.7z"/>
	<path class="st0" d="M155.4,179.4c0.5,0.3,1,0.6,1.5,1c0.7,0.5,1,1.1,0.9,2c-0.1,0.7-0.6,1.5-0.9,2.2c-0.2,0.4-0.6,1.8-0.5,2.3
		c0,0.6,0.5,1.4,0.8,2c0.3,0.5,1.8,1.3,2.5,1.5c0.3,0.1,1.1-0.1,1.6-0.3c-0.1,0.8-0.1,1.7-0.1,1.8c0.1,0.2,0.5,1.4,0.6,1.5
		c0.2,0.3,1.4,1.3,2.1,1.3l0,0l0,0c-0.3,0.1-2,1.8-2.1,1.9c-0.4,0.4-0.7,1-0.9,1.6c-0.3,0.6-0.6,1.2-0.8,1.9
		c-0.1,0.6-0.2,1.1-0.2,1.7c0,0.4,0,0.7,0,1.1c0,0.2,0,0.3,0,0.5c0,0.2,0.2,2.1,0.5,2.9c0.1,0.3,0.3,0.6,0.4,0.8
		c0.1,0.2,1.2,1.7,1.3,1.9c0.2,0.3,1,0.9,1,1c0.2,0,0.8,0.6,1,0.7c0.1,0.1,0.5,0.3,0.6,0.4c0.1,0.1,0.7,0.4,1,0.5
		c0.2,0.1,0.5,0.3,0.7,0.3c0.1,0,0.7,0.2,0.9,0.3c0.5,0.2,4,0.2,5.1,0.1c0.5,0,1-0.1,1.5-0.1c0.4,0,0.7,0.3,0.9,0.6
		c0.2,0.2,0.4,0.5,0.5,0.8c0.2,0.3,0.3,0.6,0.5,1c0.2,0.3,2.7,3.7,2.8,3.8l0.4,0.3c0,0,1.6,0.6,2,0.6c0.4,0,1.7-0.2,2-0.4
		c0.4-0.3,1-0.6,1.4-1c0.2-0.2,0.7-0.9,1-1.4l0.3-0.3c0.3,0.5,0.6,1.7,0.8,1.9c0.1,0.1,0.4,0.8,0.5,0.9c0.1,0.1,0.3,0.4,0.4,0.4
		c0.1,0.1,1.2,0.6,1.6,0.6c0.4,0,1.7-0.2,2-0.4c0.4-0.2,0.8-0.7,1.1-1.1c0.2-0.3,1.2-1.5,1.3-1.5c0,0.3,3.5,2,4,2.1
		c0.6,0.1,1.5,0.1,2.2,0.1c0.6,0,1.8-0.6,2.9-1.1c0.1,0.1,0.2,0.2,0.2,0.3c0.1,0.2,0.7,3.3,0.3,4.1c-1.8,0-3.6-0.7-5.4-0.4
		c-0.5,0.1-3.6,0.9-4,1.1c-1.3,0.7-2.7,1.5-3.8,2.6c-0.6,0.5-1.1,1.3-1.5,2c-0.3,0.6,2.6,0.8,2.9,0.8c1.2-0.1,2.3,0,3.5,0
		c1.2,0,2.3-0.1,3.6,0.1c0.5,0.1,1.1,0.1,1.6,0.2c1.7,0.2,3.4,0.8,5,1.6c0,0.2-1.6,0.9-2.1,1c-0.3,0.1-1.2,0.5-1.4,0.6
		c-0.5,0.3-1.1,0.5-1.6,0.9c-1,0.7-2.1,1.6-3,2.5c-0.9,1-1.5,2.4-1.9,3.8c-0.1,0.4-0.3,0.8,0,1.1c0.2,0.1,1.1,0.1,1.3,0.2
		c1.1,0.1,4.8,0.1,5.6,0c0.8-0.1,1.6-0.5,2.3-0.8c1.2-0.5,1.9-1.9,3.1-2.3c0,0.4,0,2,0.1,2.4c0.1,0.8-0.5,4.8-0.8,5.9
		c-0.1,0.5-0.6,2.3-0.7,2.7c-0.4,1.6-1.3,3.4-2.3,4.7c-0.5,0.7-1.1,1.3-1.7,1.9c-0.4,0.4-0.7,0.8-1.1,1.2c-0.4,0.4-0.8,0.5-1.1,0.8
		c0.2,0.3,1.3,0.1,1.6,0c0.7-0.1,1.6-0.3,2.2-0.5c0.4-0.1,1-0.3,1.4-0.5c0.1,0,0.4-0.3,0.5-0.3c0.2-0.1,0.4-0.2,0.6-0.4
		c1-0.9,2.1-1.6,3-2.6c0.9-1,1.9-1.9,2.5-3.2c0.6-1.1,1.3-2.2,1.7-3.4c0.2-0.6,1.3-3.4,1.4-3.5c0.1-0.2,2.4-4.9,2-4.9
		c-0.7-0.1-1.3-0.2-1.9-0.4c-0.2-0.1-2.5-1.9-2.6-2.2c-0.2-0.4-0.4-0.8-0.6-1.3c-0.3-0.8-0.8-1.6-0.9-2.5c-0.1-0.8,0.5-1.6-0.1-2.2
		c-0.4-0.4-1-0.9-1.3-1.5c-0.1-0.3-1-2.5-0.9-3.2c0.1-0.9,0.9-3.9,0.5-4.1c-0.3-0.2-2.1-1.4-2.4-1.6c-0.5-0.3-1.1-0.7-1.6-0.9
		c-0.3-0.1-0.8-0.2-1.3-0.3c0.4-0.2,0.7-0.4,0.8-0.5c0.6-0.8,0.9-1.7,1.1-2.7c0-0.2,0.1-0.4,0.2-0.4l1.3,0.1l0.1,0
		c0.3,0,0.7,0.1,1,0.1c0.5,0,1,0,1.4-0.3c0.4-0.2,1.4-1.5,1.6-1.9c0.2-0.4,0.9-2.4,1.1-3c0.3,0.1,1,0.5,1.1,0.6
		c0.4,0.2,1.8,0.4,2.2,0.3c0.4,0,0.8-0.1,1.2-0.3c0.3-0.1,1.5-1.1,1.7-1.3c0.3-0.3,1.6-2.5,1.6-2.7c0.1-0.3,0.3-1.5,0.3-1.9
		c0-0.6-0.6-3.5-1.1-4.9l0.9-0.3c0.1,0,0.2,0,0.3-0.1c0.2,0,0.6-0.2,0.6-0.2c0.1-0.1,2.4-1.8,2.6-2c0.2-0.2,0.4-0.5,0.5-0.7
		c0.2-0.2,0.2-0.4,0.4-0.6c0.1-0.1,0.6-1.1,0.7-1.3c0.1-0.2,0.3-0.9,0.5-1.3l0.2-0.3l0,0c0.2,0,0.4,0,0.5,0c0.2,0,0.4-0.1,0.6-0.1
		c0.3-0.1,0.7-0.1,1-0.2c0.3-0.1,1.4-1.1,1.8-1.5c0.4-0.6,0.6-1.2,0.9-1.8c0.5-1.3,0.4-2.6,0.5-4c0-0.5-0.1-2.3-0.2-2.7
		c0,0-0.2-0.4-0.3-0.5c-0.2,0-0.3,0.2-0.4,0.4l-4.7,3.8c0,0-3.2,2.9-4.2,3.7c-1.5,1.2-2.7,3.2-2.7,3.2l-3.2,3.9l-4,3.7l-3,1.9
		l-6.8,2.6l-4,0.7l-5.6-0.3l-4.3-1.4l-4-1.9l-4.4-2.7l-2.8-2.2l-4.6-5.4l-2-4l-0.7-4.5l-0.8-10.2l0.1-0.4l4.2-11.7
		c0-0.7-0.8-2-1-2.2c-0.2-0.2-0.5-0.3-0.8-0.4c-0.9-0.5-2.2-0.7-3.3-0.5c-1.5,0.2-2.4,2.1-2.8,3.4c-0.2,0.7-0.2,1.4-0.2,2.1
		c0,0.5-0.2,1.8-0.3,2.7l-0.3,1.1c0,0-0.1,0.2-0.2,0.5c-0.1,0.2-0.3,0.4-0.4,0.5c-0.2,0.2-0.4,0.3-0.7,0.4c-0.7,0.5-1.7,0.8-2.5,1.1
		c-1.1,0.4-3.6,2.2-4,2.6c-0.5,0.5-1.1,1-1.4,1.7c-0.3,0.7-0.4,1.6-0.5,2.3c-0.1,0.6-0.1,1.3,0,1.9
		C153.9,178.7,154.8,179,155.4,179.4z"/>
	<path class="st0" d="M454.5,329.7c-2.2-2.2-4.7-3.9-7.6-5c-2.8-1.1-5.8-1.6-8.8-1.6c-1.5,0-3,0.1-4.3,0.4c-1.4,0.3-2.7,0.6-3.8,1.1
		c-1.2,0.4-2.3,0.9-3.3,1.5c-1,0.6-1.9,1.1-2.8,1.7h-0.1c0-0.7,0.1-1.8,0.1-3.2c0-1.4,0-2.8,0-4.4V312h0v-36.2
		c1.7-2.5,4-4.3,7.1-5.5c3.1-1.2,6.6-1.8,10.7-1.8h1.1v-11.6c-1-0.1-2.1-0.2-3.5-0.2c-3.8,0-7.1,0.8-9.8,2.4
		c-2.7,1.6-4.9,3.7-6.4,6.5h-0.2l-1.2-7.5h-10.9v39.8h0v68.1c0,2.1,0,4.4-0.1,6.7c-0.1,2.4-0.1,4.3-0.2,5.9h10.9l1.3-5.7h0.2
		c0.5,0.6,1.1,1.4,2,2.2c0.8,0.8,1.9,1.6,3.1,2.3c1.2,0.7,2.7,1.4,4.3,1.9c1.6,0.5,3.5,0.8,5.5,0.8c2.9,0,5.8-0.6,8.6-1.8
		c2.9-1.2,5.4-3,7.7-5.4c2.3-2.4,4.1-5.5,5.5-9.3c1.4-3.8,2.1-8.1,2.1-12.9c0-4.6-0.6-8.6-2-12.1C458.4,334.9,456.7,332,454.5,329.7
		z M447.2,358.6c-0.6,2.2-1.4,4.1-2.5,5.7c-1.1,1.6-2.5,2.8-4.1,3.7c-1.6,0.9-3.5,1.3-5.7,1.3c-1.3,0-2.5-0.2-3.6-0.5
		c-1.1-0.4-2.1-0.8-3.1-1.3c-0.9-0.5-1.8-1.1-2.6-1.8c-0.8-0.7-1.4-1.3-1.9-1.9v-25.9c1.6-1.3,3.5-2.3,5.5-3.1c2-0.8,4-1.2,5.9-1.2
		c1.4,0,2.8,0.2,4.3,0.7c1.4,0.4,2.8,1.3,4.1,2.6c1.3,1.3,2.4,3.1,3.2,5.6c0.8,2.4,1.2,5.3,1.2,8.7
		C448,353.9,447.7,356.4,447.2,358.6z"/>
	<path class="st0" d="M393.7,329.5c-2.1-2.2-4.6-3.9-7.5-4.9c-2.9-1-6-1.6-9.5-1.6c-3.3,0-6.4,0.6-9.5,1.8c-3.1,1.2-5.8,3-8.2,5.4
		c-2.4,2.4-4.3,5.5-5.7,9.1c-1.4,3.7-2.1,8-2.1,12.9c0,5,0.8,9.2,2.3,12.7c1.5,3.5,3.5,6.3,6.1,8.5c2.6,2.2,5.6,3.8,9,4.8
		c3.4,1,7.1,1.5,10.9,1.5c3.8,0,7.5-0.3,11-1c3.5-0.7,6.2-1.4,7.9-2.1v-10.5c-2.9,1-5.7,1.7-8.5,2.2c-2.8,0.5-5.5,0.8-8,0.8
		c-2.3,0-4.5-0.2-6.5-0.8s-3.8-1.3-5.3-2.4c-1.5-1.1-2.7-2.5-3.7-4.3c-0.9-1.8-1.5-3.9-1.7-6.4h35.4c0.1-1.3,0.1-2.9,0.2-4.7
		c0-4.8-0.6-8.9-1.8-12.5C397.4,334.7,395.8,331.8,393.7,329.5z M365.4,345.1c0.2-1.6,0.6-3.1,1.1-4.5c0.6-1.4,1.3-2.6,2.3-3.7
		c0.9-1.1,2.1-1.9,3.4-2.5c1.3-0.6,2.8-0.9,4.5-0.9c1.7,0,3.1,0.3,4.4,0.9c1.2,0.6,2.3,1.4,3.1,2.5c0.8,1.1,1.5,2.3,1.9,3.7
		c0.4,1.4,0.6,2.9,0.6,4.5H365.4z"/>
	<path class="st0" d="M489.4,325.5c-2.7,1.6-4.9,3.7-6.4,6.5h-0.2l-1.2-7.5h-10.9v54h13.2v-36.2c1.7-2.5,4-4.3,7.1-5.5
		c3.1-1.2,6.6-1.8,10.7-1.8h1.1v-11.6c-1-0.1-2.1-0.2-3.5-0.2C495.4,323.1,492.1,323.9,489.4,325.5z"/>
	<rect x="563.9" y="324.4" class="st0" width="13.2" height="54"/>
	<path class="st0" d="M615.8,369c-2.7,0-5.1-0.5-7.1-1.4c-2-0.9-3.6-2.1-4.9-3.6c-1.3-1.5-2.3-3.3-2.9-5.4c-0.7-2.1-1-4.3-1-6.7
		c0-3.3,0.4-6.1,1.3-8.4c0.9-2.3,2.1-4.2,3.5-5.6c1.5-1.4,3.2-2.4,5.1-3.1c1.9-0.6,4-1,6.1-1c2.1,0,4.1,0.2,5.9,0.6
		c1.8,0.4,3.6,1,5.2,1.7v-10.8c-1.8-0.7-3.8-1.3-6.1-1.8c-2.2-0.4-4.6-0.6-7-0.6c-3.2,0-6.5,0.5-9.8,1.6c-3.3,1.1-6.3,2.8-9,5.1
		c-2.7,2.3-4.8,5.3-6.5,9.1c-1.7,3.7-2.5,8.2-2.5,13.4c0,4.6,0.7,8.7,2.2,12.2c1.5,3.5,3.4,6.3,6,8.6c2.5,2.3,5.5,4,8.9,5.1
		c3.4,1.1,7,1.7,10.9,1.7c2.7,0,5.2-0.2,7.6-0.8c2.4-0.5,4.5-1.1,6.1-1.8v-10.8c-1.7,0.7-3.6,1.3-5.6,1.8
		C620.4,368.8,618.2,369,615.8,369z"/>
	<path class="st0" d="M680.6,371.6c-0.1-2.6-0.1-5.6-0.1-9.2V342c0-2.7-0.5-5.2-1.5-7.5c-1-2.3-2.5-4.3-4.5-6c-2-1.7-4.5-3-7.4-4
		c-3-1-6.4-1.4-10.3-1.4c-3.3,0-6.5,0.4-9.6,1c-3,0.6-5.9,1.5-8.6,2.7v10.3c3.1-1.2,6-2.1,8.7-2.7c2.7-0.6,5.4-0.9,8-0.9
		c2.2,0,4.1,0.3,5.6,0.8c1.5,0.5,2.8,1.3,3.7,2.2c0.9,0.9,1.6,2,2.1,3.1c0.4,1.2,0.6,2.4,0.6,3.7v2.2c-1.5-0.4-3.2-0.8-5.2-1.1
		c-2-0.3-4.1-0.4-6.5-0.4c-3.2,0-6.1,0.4-8.8,1.3c-2.6,0.8-4.9,2.1-6.8,3.7c-1.9,1.6-3.4,3.6-4.4,5.9c-1.1,2.3-1.6,4.9-1.6,7.8
		c0,2.6,0.5,5,1.4,7.2c0.9,2.1,2.2,4,3.8,5.5c1.6,1.5,3.5,2.7,5.7,3.5c2.2,0.8,4.6,1.2,7.2,1.2c1.9,0,3.7-0.2,5.3-0.7
		c1.6-0.4,3.1-1,4.5-1.8c1.3-0.7,2.5-1.5,3.6-2.3c1-0.8,1.9-1.6,2.7-2.4h0.2l0.6,5.7h11.9C680.7,376.4,680.7,374.2,680.6,371.6z
		 M667.3,363.7c-0.6,0.6-1.2,1.3-2,2c-0.8,0.7-1.7,1.3-2.7,1.8c-1,0.5-2.1,1-3.3,1.3c-1.2,0.4-2.5,0.5-3.8,0.5
		c-1.1,0-2.1-0.1-3.1-0.4c-1-0.3-1.8-0.7-2.5-1.3c-0.7-0.6-1.3-1.3-1.7-2.3c-0.4-0.9-0.6-2-0.6-3.2c0-2.6,0.9-4.6,2.8-5.9
		c1.9-1.3,4.4-1.9,7.7-1.9c1.7,0,3.3,0.1,5,0.4c1.6,0.2,3.1,0.5,4.4,0.8V363.7z"/>
	<path class="st0" d="M551.5,362.4V342c0-2.7-0.5-5.2-1.5-7.5c-1-2.3-2.5-4.3-4.5-6c-2-1.7-4.5-3-7.4-4c-3-1-6.4-1.4-10.3-1.4
		c-3.3,0-6.5,0.4-9.6,1c-3,0.6-5.9,1.5-8.6,2.7v10.3c3.1-1.2,6-2.1,8.7-2.7c2.7-0.6,5.4-0.9,8-0.9c2.2,0,4.1,0.3,5.6,0.8
		c1.5,0.5,2.8,1.3,3.7,2.2c0.9,0.9,1.6,2,2.1,3.1c0.4,1.2,0.6,2.4,0.6,3.7v2.2c-1.5-0.4-3.2-0.8-5.2-1.1c-2-0.3-4.1-0.4-6.5-0.4
		c-3.2,0-6.1,0.4-8.8,1.3c-2.6,0.8-4.9,2.1-6.8,3.7c-1.9,1.6-3.4,3.6-4.4,5.9c-1.1,2.3-1.6,4.9-1.6,7.8c0,2.6,0.5,5,1.4,7.2
		c0.9,2.1,2.2,4,3.8,5.5c1.6,1.5,3.5,2.7,5.7,3.5c2.2,0.8,4.6,1.2,7.2,1.2c1.9,0,3.7-0.2,5.3-0.7c1.6-0.4,3.1-1,4.5-1.8
		c1.3-0.7,2.5-1.5,3.6-2.3c1-0.8,1.9-1.6,2.7-2.4h0.2l0.6,5.7h11.9c-0.1-2-0.1-4.3-0.2-6.9C551.6,369,551.5,366,551.5,362.4z
		 M538.3,363.7c-0.6,0.6-1.2,1.3-2,2c-0.8,0.7-1.7,1.3-2.7,1.8c-1,0.5-2.1,1-3.3,1.3c-1.2,0.4-2.5,0.5-3.8,0.5
		c-1.1,0-2.1-0.1-3.1-0.4c-1-0.3-1.8-0.7-2.5-1.3c-0.7-0.6-1.3-1.3-1.7-2.3c-0.4-0.9-0.6-2-0.6-3.2c0-2.6,0.9-4.6,2.8-5.9
		c1.9-1.3,4.4-1.9,7.7-1.9c1.7,0,3.3,0.1,5,0.4c1.6,0.2,3.1,0.5,4.3,0.8V363.7z"/>
	<path class="st0" d="M584.6,295.9v-20.4c0-2.7-0.5-5.2-1.5-7.5c-1-2.3-2.5-4.3-4.5-6c-2-1.7-4.5-3-7.4-4c-3-1-6.4-1.4-10.3-1.4
		c-3.3,0-6.5,0.4-9.6,1c-3,0.6-5.9,1.5-8.6,2.7v10.3c3.1-1.2,6-2.1,8.7-2.7c2.7-0.6,5.4-0.9,8-0.9c2.2,0,4.1,0.3,5.6,0.8
		c1.5,0.5,2.8,1.3,3.7,2.2c0.9,0.9,1.6,2,2.1,3.1c0.4,1.2,0.6,2.4,0.6,3.7v2.2c-1.5-0.4-3.2-0.8-5.2-1.1c-2-0.3-4.1-0.4-6.5-0.4
		c-3.2,0-6.1,0.4-8.8,1.3c-2.6,0.8-4.9,2.1-6.8,3.7c-1.9,1.6-3.4,3.6-4.4,5.9c-1.1,2.3-1.6,4.9-1.6,7.8c0,2.6,0.5,5,1.4,7.2
		c0.9,2.1,2.2,4,3.8,5.5c1.6,1.5,3.5,2.7,5.7,3.5c2.2,0.8,4.6,1.2,7.2,1.2c1.9,0,3.7-0.2,5.3-0.7c1.6-0.4,3.1-1,4.5-1.8
		c1.3-0.7,2.5-1.5,3.6-2.3c1-0.8,1.9-1.6,2.7-2.4h0.2l0.6,5.7H585c-0.1-2-0.1-4.3-0.2-6.9C584.7,302.5,584.6,299.5,584.6,295.9z
		 M571.4,297.2c-0.6,0.6-1.2,1.3-2,2c-0.8,0.7-1.7,1.3-2.7,1.8c-1,0.5-2.1,1-3.3,1.3c-1.2,0.4-2.5,0.5-3.8,0.5
		c-1.1,0-2.1-0.1-3.1-0.4c-1-0.3-1.8-0.7-2.5-1.3c-0.7-0.6-1.3-1.3-1.7-2.3c-0.4-0.9-0.6-2-0.6-3.2c0-2.6,0.9-4.6,2.8-5.9
		c1.9-1.3,4.4-1.9,7.7-1.9c1.7,0,3.3,0.1,5,0.4c1.6,0.2,3.1,0.5,4.3,0.8V297.2z"/>
	<path class="st0" d="M392.4,259c-2.7,1.6-4.9,3.7-6.4,6.5h-0.2l-1.2-7.5h-10.9v54h13.2v-36.2c1.7-2.5,4-4.3,7.1-5.5
		c3.1-1.2,6.6-1.8,10.7-1.8h1.1v-11.6c-1-0.1-2.1-0.2-3.5-0.2C398.4,256.6,395.1,257.4,392.4,259z"/>
	<path class="st0" d="M362.2,310.2v-10.5c-2.9,1-5.7,1.7-8.5,2.2c-2.8,0.5-5.5,0.8-8,0.8c-2.3,0-4.5-0.3-6.5-0.8
		c-2-0.5-3.8-1.3-5.3-2.4c-1.5-1.1-2.7-2.5-3.7-4.3c-0.9-1.8-1.5-3.9-1.7-6.4H364c0.1-1.3,0.1-2.9,0.2-4.7c0-4.8-0.6-9-1.8-12.5
		s-2.8-6.4-4.9-8.6c-2.1-2.2-4.6-3.9-7.5-4.9c-2.9-1-6-1.6-9.5-1.6c-3.3,0-6.4,0.6-9.5,1.8c-3.1,1.2-5.8,3-8.2,5.4
		c-2.4,2.4-4.3,5.5-5.7,9.1s-2.1,8-2.1,12.9c0,5,0.8,9.2,2.3,12.7c1.5,3.5,3.5,6.3,6.1,8.5c2.6,2.2,5.6,3.8,9,4.8
		c3.4,1,7.1,1.5,10.9,1.5c3.8,0,7.5-0.3,11-1C357.9,311.7,360.5,311,362.2,310.2z M330.3,274c0.6-1.4,1.3-2.6,2.3-3.7
		c0.9-1.1,2.1-1.9,3.4-2.5c1.3-0.6,2.8-0.9,4.5-0.9c1.7,0,3.1,0.3,4.4,0.9c1.2,0.6,2.3,1.4,3.1,2.5c0.8,1.1,1.5,2.3,1.9,3.7
		c0.4,1.4,0.6,2.9,0.6,4.5h-21.2C329.4,277,329.7,275.5,330.3,274z"/>
	<path class="st0" d="M516.8,275.8c1.7-2.5,4-4.3,7.1-5.5s6.6-1.8,10.7-1.8h1.1v-11.6c-1-0.1-2.1-0.2-3.5-0.2
		c-3.8,0-7.1,0.8-9.8,2.4c-2.7,1.6-4.9,3.7-6.4,6.5h-0.2l-1.2-7.5h-10.9v54h13.2V275.8z"/>
	<path class="st0" d="M476.6,308.6c1-0.8,1.9-1.6,2.7-2.4h0.2l0.6,5.7H492c-0.1-2-0.1-4.3-0.2-6.9c-0.1-2.6-0.1-5.6-0.1-9.2v-20.4
		c0-2.7-0.5-5.2-1.5-7.5c-1-2.3-2.5-4.3-4.5-6c-2-1.7-4.5-3-7.4-4c-3-1-6.4-1.4-10.3-1.4c-3.3,0-6.5,0.4-9.6,1
		c-3,0.6-5.9,1.5-8.6,2.7v10.3c3.1-1.2,6-2.1,8.7-2.7c2.7-0.6,5.4-0.9,8-0.9c2.2,0,4.1,0.3,5.6,0.8c1.5,0.5,2.8,1.3,3.7,2.2
		c0.9,0.9,1.6,2,2.1,3.1c0.4,1.2,0.6,2.4,0.6,3.7v2.2c-1.5-0.4-3.2-0.8-5.2-1.1c-2-0.3-4.1-0.4-6.5-0.4c-3.2,0-6.1,0.4-8.8,1.3
		c-2.6,0.8-4.9,2.1-6.8,3.7c-1.9,1.6-3.4,3.6-4.4,5.9c-1.1,2.3-1.6,4.9-1.6,7.8c0,2.6,0.5,5,1.4,7.2c0.9,2.1,2.2,4,3.8,5.5
		c1.6,1.5,3.5,2.7,5.7,3.5c2.2,0.8,4.6,1.2,7.2,1.2c1.9,0,3.7-0.2,5.3-0.7c1.6-0.4,3.1-1,4.5-1.8
		C474.4,310.2,475.5,309.4,476.6,308.6z M466.6,302.8c-1.1,0-2.1-0.1-3.1-0.4c-1-0.3-1.8-0.7-2.5-1.3c-0.7-0.6-1.3-1.3-1.7-2.3
		c-0.4-0.9-0.6-2-0.6-3.2c0-2.6,0.9-4.6,2.8-5.9c1.9-1.3,4.4-1.9,7.7-1.9c1.7,0,3.3,0.1,5,0.4c1.6,0.2,3.1,0.5,4.3,0.8v8.3
		c-0.6,0.6-1.2,1.3-2,2c-0.8,0.7-1.7,1.3-2.7,1.8c-1,0.5-2.1,1-3.3,1.3C469.2,302.6,467.9,302.8,466.6,302.8z"/>
</g>
</svg>
