<svg id="Layer_1" data-name="Layer 1" xmlns="http://www.w3.org/2000/svg" viewBox="0 0 96 96"><defs><style>.cls-1{fill:none;stroke:#fff;stroke-miterlimit:2;stroke-width:0.5px;}</style></defs><title>musica</title><path class="cls-1" d="M60.3,47.62a12.7,12.7,0,0,0-11-2.91c-.67-3.35-1.24-6.71-1.64-10.09,3.77-4.79,7.09-9.88,8.45-15.92.59-3.66-.56-7.91-3.8-10-4.16-1.11-8.17,3.25-7.59,7.3A66.76,66.76,0,0,0,45,33.88c-2.68,3-5.6,5.86-8.39,8.76C32,48.31,30,57.16,34.42,63.49c4.12,5.69,11.9,7.61,18.51,5.8a41.76,41.76,0,0,1,.8,12.26c-1.2,3.95-7.62,4.33-9.14.42-1.43-3,5.35-3.14,3-6.63-1.42-3.42-6.54-1.13-7.29,1.76C38.47,83.17,45.58,89.34,51.39,87c4.16-1.88,5.37-7.11,4.93-11.28a70.37,70.37,0,0,0-1.37-7.09,15,15,0,0,0,7-5.66C65.12,58.3,64.83,51.31,60.3,47.62ZM47.46,17.28c-.22-4.17,6.17-5.64,6.58-.91.68,3.32-1.51,6.17-2.83,9a42.43,42.43,0,0,1-3.9,5.74A71.23,71.23,0,0,1,47.46,17.28ZM37.92,63c-4.7-5.65-3.2-14.83,2.36-19.35,1.68-2.12,3.47-4.22,5.23-6.35.46,2.71,1,5.42,1.65,8.11A10.15,10.15,0,0,0,43,48.55c-3,3.38-4.17,9.47-.38,12.72A4.16,4.16,0,0,0,46,62c-4.37-2.6-3.79-10.15.89-12.09a6.63,6.63,0,0,1,1.16-.69c.85,3.46,1.76,6.91,2.61,10.33.52,2.16,1.07,4.34,1.56,6.53C47.36,68,41.34,67.17,37.92,63Zm21.61-4.14a11.32,11.32,0,0,1-5.42,6.41c-.45-1.78-.9-3.57-1.3-5.36-.93-3.71-1.85-7.44-2.69-11.2C55.37,48.07,61.26,53.34,59.54,58.83Z"/></svg>