<svg id="Layer_1" data-name="Layer 1" xmlns="http://www.w3.org/2000/svg" viewBox="0 0 96 96"><defs><style>.cls-1{fill:none;stroke:#fff;stroke-miterlimit:10;stroke-width:0.5px;}</style></defs><title>visita</title><path class="cls-1" d="M49.75,51.12H27.54v-24a20.46,20.46,0,1,1,40.92,0v4.29"/><path class="cls-1" d="M68.46,31.46V51.12H49.75"/><path class="cls-1" d="M66.41,89.29H23.75V84.46h48.5v4.83H66.41"/><polygon class="cls-1" points="23.75 54.63 25.79 54.63 70.21 54.63 72.25 54.63 72.25 59.46 70.21 59.46 25.79 59.46 23.75 59.46 23.75 54.63"/><rect class="cls-1" x="27.54" y="62.96" width="40.92" height="18"/><rect class="cls-1" x="33.54" y="68.96" width="28.92" height="6"/><line class="cls-1" x1="48.08" y1="27.33" x2="48.08" y2="51.12"/><path class="cls-1" d="M58.42,27.33a10.35,10.35,0,1,1-20.67,0V25"/><path class="cls-1" d="M55.69,27.33a7.61,7.61,0,0,1-15.22,0V25"/><path class="cls-1" d="M52.95,27.33a4.87,4.87,0,1,1-9.74,0V25"/><path class="cls-1" d="M50.57,27.33a2.49,2.49,0,1,1-5,0V25"/><line class="cls-1" x1="48.08" y1="27.33" x2="48.08" y2="25.02"/><line class="cls-1" x1="50.57" y1="27.33" x2="50.57" y2="25.02"/><line class="cls-1" x1="52.95" y1="27.33" x2="52.95" y2="25.02"/><line class="cls-1" x1="55.69" y1="27.33" x2="55.69" y2="25.02"/><line class="cls-1" x1="58.42" y1="27.33" x2="58.42" y2="25.02"/></svg>